<svg version="1.2" xmlns="http://www.w3.org/2000/svg" viewBox="0 0 16 16" width="16" height="16"><style>.a{opacity:.4}</style><path class="a" d="m15 6.6c0-2.5-1.3-4.4-3.5-5.7-1.1-0.6-2.3-0.9-3.5-0.9-1.2 0-2.4 0.3-3.5 0.9-2.2 1.3-3.5 3.6-3.5 6.1v6c0 0 0 2 2 2h1c0.6 0 1-0.4 1-1v-4c0-0.6-0.5-1-1-1 0 0-1 0-1-1v-1c0-1.8 1-3.4 2.5-4.3 1.5-0.9 3.5-0.9 5 0 1.5 0.9 2.6 2.3 2.6 4.1h1.9z"/><path  d="m9 7.8q-0.5 0-0.8 0.4c-0.5 0.4-0.5 1.2 0 1.6l1.5 1.6-1.5 1.6c-0.5 0.4-0.5 1.2 0 1.6 0.4 0.5 1.2 0.5 1.6 0l1.6-1.5 1.6 1.5c0.4 0.5 1.2 0.5 1.6 0 0.5-0.4 0.5-1.2 0-1.6l-1.5-1.6 1.5-1.6c0.5-0.4 0.5-1.2 0-1.6q-0.3-0.4-0.8-0.4-0.5 0-0.8 0.4l-1.6 1.5-1.6-1.5q-0.3-0.4-0.8-0.4z"/></svg>