<?xml version="1.0" encoding="UTF-8"?>
<svg height="16px" viewBox="0 0 16 16" width="16px" xmlns="http://www.w3.org/2000/svg">
    <path d="m 8 0.5625 c -1.230469 0 -2.4375 0.324219 -3.5 0.9375 c -2.167969 1.25 -3.5 3.5625 -3.5 6.0625 v 6 s 0 2 2 2 h 1 c 0.554688 0 1 -0.445312 1 -1 v -4 c 0 -0.554688 -0.5 -1 -1 -1 c 0 0 -1 0 -1 -1 v -1 c 0 -1.785156 0.953125 -3.4375 2.5 -4.332031 c 1.546875 -0.890625 3.453125 -0.890625 5 0 c 1.546875 0.894531 2.5 2.546875 2.5 4.332031 v 1 c 0 0.605469 -0.363281 0.839844 -0.652344 0.933594 c 0.019532 0.023437 0.042969 0.039062 0.0625 0.0625 c 0.761719 0.757812 0.761719 2.023437 0 2.785156 l -0.605468 0.605469 l 0.605468 0.609375 c 0.539063 0.535156 0.695313 1.320312 0.472656 2.003906 h 0.117188 c 2 0 2 -2 2 -2 v -6 c 0 -2.5 -1.335938 -4.8125 -3.5 -6.0625 c -1.0625 -0.613281 -2.269531 -0.9375 -3.5 -0.9375 z m 0 0" fill="#9a9996"/>
    <path d="m 7.019531 9.949219 c -0.265625 0 -0.519531 0.105469 -0.707031 0.292969 c -0.390625 0.390624 -0.390625 1.023437 0 1.414062 l 1.292969 1.292969 l -1.292969 1.292969 c -0.390625 0.390624 -0.390625 1.023437 0 1.414062 s 1.023438 0.390625 1.414062 0 l 1.292969 -1.292969 l 1.292969 1.292969 c 0.390625 0.390625 1.023438 0.390625 1.414062 0 c 0.390626 -0.390625 0.390626 -1.023438 0 -1.414062 l -1.292968 -1.292969 l 1.292968 -1.292969 c 0.390626 -0.390625 0.390626 -1.023438 0 -1.414062 c -0.1875 -0.1875 -0.441406 -0.292969 -0.707031 -0.292969 s -0.519531 0.105469 -0.707031 0.292969 l -1.292969 1.292968 l -1.292969 -1.292968 c -0.1875 -0.1875 -0.441406 -0.292969 -0.707031 -0.292969 z m 0 0" fill="#c01c28"/>
</svg>
