<?xml version="1.0" encoding="UTF-8"?>
<svg version="1.1" viewBox="0 0 16 16" xmlns="http://www.w3.org/2000/svg">
<path d="m3.248 0c-1.7687 0-3.2 1.425-3.2 3.2v9.6c0 1.775 1.4313 3.2 3.2 3.2h9.5313c1.775 0 3.2-1.425 3.2-3.2v-9.6c0-1.775-1.425-3.2-3.2-3.2zm4.7688 1.6c0.875 0 1.575 0.7 1.575 1.575v4.8562c0 0.86875-0.7 1.5688-1.575 1.5688-0.86875 0-1.5688-0.7-1.5688-1.5688v-4.8562c0-0.875 0.7-1.575 1.5688-1.575zm-0.025 9.175c1.1188 0 2.025 0.90625 2.025 2.025s-0.90625 2.025-2.025 2.025-2.025-0.90625-2.025-2.025 0.90625-2.025 2.025-2.025z" fill="#b41520" stroke-width="1.6"/>
<path d="m7.9866 1.6121c-0.42308 0.0070098-0.83485 0.19518-1.1124 0.51547-0.17737 0.17446-0.30074 0.40564-0.36263 0.64497-0.064011 0.59722-0.029804 1.2003-0.040346 1.8 4.088e-4 1.245 2.129e-4 2.4901 2.562e-4 3.7351 0.11974 0.50649 0.46277 0.97069 0.95584 1.1635 0.37889 0.15783 0.82403 0.14603 1.2022-0.007638 0.48537-0.20064 0.83687-0.66839 0.93886-1.1758-0.0018646-1.6927 0.019062-3.3855-5.036e-4 -5.078 0.007621-0.3052-0.053931-0.61485-0.23105-0.869-0.29047-0.45316-0.80754-0.74635-1.3502-0.72868z" fill="#fefefe" stroke-width=".00039702"/>
<path d="m7.9059 10.795c-0.7729 0.0094-1.4971 0.53985-1.779 1.2539-0.12138 0.2513-0.14298 0.53028-0.12938 0.80488-0.019314 0.3373 0.08487 0.66605 0.25673 0.95336 0.30899 0.55255 0.90353 0.93112 1.5306 0.99317 0.37052 0.01304 0.75664-0.0082 1.0866-0.19604 0.72588-0.34173 1.1973-1.1482 1.1273-1.949-0.047836-0.75384-0.55902-1.4483-1.2627-1.722-0.26362-0.11394-0.54433-0.15394-0.83014-0.13834z" fill="#fefefe" stroke-width=".00039702"/>
</svg>
