<?xml version="1.0"?>
<svg xmlns="http://www.w3.org/2000/svg" width="16" height="16"><path d="M13.98 1.99a1 1 0 0 0-.687.303l-.984.984A8 8 0 0 0 8 2 8 8 0 0 0 .262 8.01a8 8 0 0 0 2.943 4.37l-.912.913a1 1 0 1 0 1.414 1.414l11-11a1 1 0 0 0-.727-1.717zM8 4a4 4 0 0 1 2.611.974l-1.42 1.42A2 2 0 0 0 8 6a2 2 0 0 0-2 2 2 2 0 0 0 .396 1.19l-1.42 1.42A4 4 0 0 1 4 8a4 4 0 0 1 4-4zm7.03 2.209l-3.344 3.343a4 4 0 0 1-2.127 2.127l-2.28 2.28a8 8 0 0 0 .721.04 8 8 0 0 0 7.738-6.01 8 8 0 0 0-.709-1.78zm-7.53.79a.5.5 0 0 1 .5.5.5.5 0 0 1-.5.5.5.5 0 0 1-.5-.5.5.5 0 0 1 .5-.5z" fill="#9a9996"/></svg>
