<?xml version="1.0" encoding="UTF-8"?>
<svg width="16px" height="16px" version="1.1" viewBox="0 0 16 16" xmlns="http://www.w3.org/2000/svg">
 <g transform="translate(-2388.3 -3285.1)">
  <path d="m2401.3 3286.1c-0.5547 0-1 0.4453-1 1v7.2695c0.1485 0.09 0.2891 0.1914 0.4141 0.3164l0.414 0.4141h0.3438l0.4141-0.4141c0.375-0.375 0.8828-0.5859 1.414-0.5859v-7c0-0.5547-0.4453-1-1-1zm-4 3c-0.5547 0-1 0.4453-1 1v9c0 0.5547 0.4453 1 1 1h0.01c0-0.5156 0.1914-1.0273 0.5781-1.4141l0.4141-0.414v-0.3438l-0.4141-0.414c-0.7734-0.7735-0.7734-2.0547 0-2.8282 0.375-0.375 0.8829-0.5859 1.4141-0.5859v-4c0-0.5547-0.4453-1-1-1zm-4 3c-0.5547 0-1 0.4453-1 1v6c0 0.5547 0.4453 1 1 1h1c0.5547 0 1-0.4453 1-1v-6c0-0.5547-0.4453-1-1-1zm-4 3c-0.5547 0-1 0.4453-1 1v3c0 0.5547 0.4453 1 1 1h1c0.5547 0 1-0.4453 1-1v-3c0-0.5547-0.4453-1-1-1z" fill-opacity=".1"/>
  <path d="m2399.3 3295.1c-0.2656 0-0.5195 0.1055-0.707 0.293-0.3906 0.3906-0.3906 1.0234 0 1.414l1.293 1.293-1.293 1.293c-0.3906 0.3906-0.3906 1.0234 0 1.414 0.3906 0.3907 1.0234 0.3907 1.414 0l1.293-1.2929 1.293 1.2929c0.3906 0.3907 1.0234 0.3907 1.414 0 0.3907-0.3906 0.3907-1.0234 0-1.414l-1.2929-1.293 1.2929-1.293c0.3907-0.3906 0.3907-1.0234 0-1.414-0.1875-0.1875-0.4414-0.293-0.707-0.293s-0.5195 0.1055-0.707 0.293l-1.293 1.2929-1.293-1.2929c-0.1875-0.1875-0.4414-0.293-0.707-0.293z" fill="#b8131a"/>
 </g>
</svg>
