<svg clip-rule="evenodd" fill-rule="evenodd" stroke-linejoin="round" stroke-miterlimit="2" viewBox="0 0 256 256" xmlns="http://www.w3.org/2000/svg"><g fill="#fff"><path d="m512 45c257.744 0 467 209.256 467 467s-209.256 467-467 467-467-209.256-467-467 209.256-467 467-467zm0 44c233.46 0 423 189.54 423 423s-189.54 423-423 423-423-189.54-423-423 189.54-423 423-423z" transform="matrix(.259982 0 0 .259982 -5.11075 -5.11075)"/><path d="m442.843 489.141c-34.396-32.912-81.026-53.141-132.343-53.141-1.316 0-2.629.013-3.938.04-16.654-32.226-26.062-68.793-26.062-107.54 0-91.081 51.984-170.117 127.875-209.03l-.045.029c-.186.12-.371.24-.557.361l-.017.011-.049.032-.345.225-.164.107-.059.039-.066.043-.193.127-.29.192-.066.043-.03.02c-.387.257-.774.514-1.16.774l-.035.024-.07.047-.267.18-.205.139-.069.046-.054.037-.149.101-.367.251-.038.026-.012.007c-.196.135-.392.269-.588.404l-.421.291-.139.097-.053.037-.07.048-.21.147-.252.176-.071.05-.04.028c-.379.266-.758.533-1.135.802l-.027.019-.065.047-.292.208-.177.127-.065.047-.061.044-.165.118-.312.226-.059.042-.021.016c-.375.271-.749.544-1.122.819l-.045.032-.072.053-.229.169-.219.162-.072.053-.047.036-.125.092-.406.303-.014.01c-.189.142-.378.284-.567.426l-.019.014-.054.041-.321.242-.152.116-.059.045-.067.051-.18.136-.269.206-.069.052-.031.025c-.366.28-.732.562-1.096.845l-.037.029-.071.055-.249.194-.189.149-.07.054-.055.044-.139.108-.338.267-.045.036-.014.01c-.184.146-.369.292-.553.439l-.009.007-.035.028-.357.286-.129.103-.053.042-.071.057-.196.158-.233.188-.072.058-.041.033c-.357.29-.714.581-1.07.873l-.028.023-.067.055-.271.223-.164.135-.065.054-.062.052-.152.126-.288.24-.063.052-.023.019c-.18.151-.36.301-.54.452l-.408.345-.108.091-.045.038-.073.062-.212.18-.202.172-.072.062-.049.042-.115.098-.373.32-.026.022c-.177.153-.354.306-.531.459l-.02.017-.058.051-.297.258-.139.122-.06.051-.067.059-.166.146-.248.217-.071.063-.032.028c-.344.303-.687.608-1.029.913l-.037.033-.073.066-.229.206-.174.156-.07.063-.056.05-.127.115-.311.281-.051.046-.015.014c-.172.157-.344.314-.516.471l-.011.01-.041.038-.329.301-.118.109-.053.049-.071.065-.18.167-.214.198-.074.068-.04.039c-.335.311-.669.624-1.002.938l-.029.027-.069.065-.25.236-.149.142-.065.062-.062.059-.14.133-.263.252-.066.062-.025.024c-.167.161-.335.322-.502.483l-.386.374-.098.095-.045.044-.074.071-.195.19-.184.181-.073.071-.048.047-.105.103-.339.334-.038.037c-.165.163-.329.326-.494.49l-.02.02-.061.061-.272.272-.128.127-.058.059-.067.067-.153.153-.226.228-.072.073-.033.033c-.32.324-.64.65-.958.976l-.037.038-.074.075-.21.217-.159.164-.069.071-.055.057-.117.121-.282.293-.055.057-.017.017c-.16.167-.319.334-.478.501l-.013.013-.046.048-.3.316-.107.113-.052.055-.07.075-.166.175-.194.206-.073.078-.041.044c-.311.332-.622.665-.931.999l-.029.032-.07.076-.228.247-.135.148-.064.069-.061.067-.128.139-.239.262-.067.074-.025.028c-.155.17-.31.341-.465.512l-.361.402-.089.098-.044.05-.073.081-.178.199-.167.187-.071.08-.048.055-.096.107-.306.346-.037.042-.009.01c-.152.172-.304.344-.455.518l-.021.023-.063.073-.247.282-.115.133-.058.066-.065.075-.139.16-.205.237-.072.083-.033.038c-.296.344-.591.689-.885 1.035l-.037.043-.072.085-.191.226-.144.17-.067.079-.054.065-.106.125-.254.304-.058.069-.018.021c-.147.176-.293.352-.44.528l-.012.015-.05.06-.272.329-.096.117-.051.061-.068.083-.15.183-.175.214-.072.088-.041.049-.076.094-.341.419-.007.009c-.144.178-.288.356-.432.534l-.029.036-.069.087-.206.257-.123.153-.061.077-.059.074-.116.145-.215.271-.068.085-.025.032c-.142.179-.284.359-.425.539l-.336.428-.079.102-.043.055-.07.09-.161.207-.15.194-.07.089-.046.061-.086.111-.274.356-.042.055-.01.012c-.139.181-.277.363-.416.544l-.021.028-.063.083-.223.293-.103.137-.055.073-.063.084-.125.166-.184.244-.07.093-.033.044c-.271.362-.541.725-.809 1.089l-.036.048-.07.095-.172.234-.128.176-.065.088-.052.071-.095.13-.227.312-.059.081-.018.025c-.134.184-.267.368-.4.553l-.013.018-.051.071-.244.34-.086.12-.048.067-.066.093-.135.189-.156.221-.069.097-.039.055-.069.097-.302.429-.017.024c-.131.186-.262.373-.392.56l-.028.04-.067.097-.185.265-.109.158-.058.084-.057.082-.104.15-.191.279-.066.096-.025.036c-.128.188-.257.376-.384.564l-.308.454-.07.104-.041.06-.067.1-.144.214-.134.2-.066.097-.044.067-.077.115-.242.364-.045.068-.01.015c-.126.189-.251.379-.376.569l-.02.03-.061.094-.199.303-.092.14-.052.08-.059.092-.112.171-.163.252-.067.103-.031.048c-.246.379-.489.76-.732 1.141l-.033.052-.067.105-.153.242-.114.18-.061.096-.049.078-.084.134-.201.32-.058.093-.017.027c-.12.193-.24.385-.36.578l-.013.021-.05.081-.217.351-.075.123-.045.073-.062.1-.12.196-.138.227-.065.106-.037.06-.06.1-.266.438-.023.039c-.118.194-.235.388-.351.583l-.026.044-.064.106-.164.275-.096.161-.054.092-.053.089-.092.155-.168.286-.063.106-.024.04c-.115.195-.229.391-.343.587l-.006.01-.031.053-.241.414-.061.106-.038.066-.063.108-.127.221-.118.205-.061.106-.041.073-.068.118-.212.373-.045.078-.01.018c-.112.197-.223.395-.334.592l-.019.034-.058.103-.176.313-.08.143-.048.086-.055.099-.098.177-.143.258-.062.112-.03.053c-.218.395-.435.791-.65 1.188l-.031.057-.061.114-.135.249-.1.185-.055.103-.045.084-.075.138-.175.328-.055.103-.016.031c-.106.2-.212.4-.318.6l-.012.023-.048.091-.19.36-.065.126-.041.078-.057.109-.105.201-.121.233-.059.115-.034.065-.053.102-.229.446-.027.053c-.104.201-.207.403-.309.605l-.024.047-.059.116-.143.282-.083.166-.049.098-.048.095-.08.16-.147.293-.057.115-.022.044c-.101.202-.201.405-.302.609l-.006.011-.03.062-.209.426-.053.108-.034.07-.057.116-.111.228-.102.21-.055.113-.037.078-.059.122-.183.381-.043.088-.009.021c-.098.204-.195.408-.292.613l-.018.036-.053.113-.152.321-.069.147-.043.091-.049.106-.086.182-.122.264-.057.121-.026.057c-.191.41-.38.821-.567 1.233l-.028.06-.055.122-.117.257-.085.19-.049.109-.04.089-.065.143-.149.335-.05.111-.015.034c-.093.207-.184.414-.276.622l-.011.025-.043.099-.163.371-.056.128-.037.083-.05.115-.09.208-.103.238-.053.122-.03.07-.045.104-.195.455-.024.055-.004.009c-.089.209-.178.418-.266.627l-.021.05-.052.123-.122.291-.071.169-.044.103-.042.102-.068.164-.125.3-.051.123-.019.047c-.087.21-.173.419-.259.629l-.005.013-.028.07-.178.437-.045.111-.03.073-.049.123-.095.235-.086.215-.048.12-.033.082-.05.125-.154.389-.039.097-.009.023c-.083.211-.166.422-.248.633l-.015.039-.047.12-.129.33-.058.151-.037.095-.043.112-.072.188-.103.27-.049.128-.023.06c-.081.213-.162.426-.242.639l-.205.544-.034.092-.024.064-.047.128-.099.265-.071.194-.042.114-.035.095-.054.146-.125.343-.043.119-.014.037c-.077.213-.154.427-.231.64l-.01.027-.038.106-.136.381-.046.131-.031.087-.043.122-.076.213-.085.244-.045.128-.026.073-.038.108-.161.464-.022.063-.003.011c-.075.215-.149.43-.222.645l-.018.053-.044.13-.102.299-.059.173-.036.108-.036.106-.057.169-.102.307-.043.13-.017.05c-.072.216-.143.432-.214.648l-.005.014-.024.075-.147.45-.037.112-.025.077-.041.129-.078.241-.071.221-.04.125-.027.086-.041.128-.126.397-.033.105-.008.025c-.068.217-.136.435-.204.652l-.013.041-.038.126-.106.339-.047.154-.03.1-.036.117-.059.193-.084.276-.04.134-.019.063c-.067.219-.132.438-.198.657l-.166.563-.028.094-.019.066-.039.135-.08.271-.057.199-.035.119-.028.099-.044.15-.1.35-.036.126-.011.038c-.062.22-.125.44-.186.66l-.008.028-.031.111-.11.392-.036.133-.026.091-.034.126-.061.219-.068.25-.036.133-.021.077-.03.111-.127.472-.019.069-.003.013c-.06.221-.118.442-.177.664l-.014.054-.036.136-.08.307-.046.177-.029.112-.029.11-.045.174-.08.313-.035.136-.013.052c-.057.222-.113.445-.169.667l-.003.014-.02.079-.115.462-.028.115-.02.08-.033.134-.061.247-.054.225-.032.13-.021.09-.032.132-.097.405-.027.11-.006.026c-.053.223-.106.447-.158.671l-.01.041-.03.131-.082.349-.036.157-.023.103-.028.121-.046.198-.063.283-.032.138-.015.067c-.05.224-.1.449-.15.674l-.128.58-.02.096-.015.068-.03.139-.061.279-.043.202-.026.124-.022.102-.033.154-.075.358-.027.13-.008.041c-.047.225-.094.451-.14.677l-.006.028-.024.116-.081.402-.028.136-.018.093-.026.131-.045.225-.05.255-.028.137-.015.08-.022.114-.094.481-.014.074-.003.014c-.043.226-.086.454-.129.681l-.01.055-.027.141-.058.315-.034.18-.021.116-.021.114-.032.178-.058.319-.026.141-.009.054c-.041.228-.082.456-.122.684l-.002.015-.014.081-.083.474-.02.117-.014.082-.023.138-.044.254-.038.23-.023.133-.015.093-.023.135-.068.413-.019.115-.004.028c-.037.229-.074.457-.11.686l-.007.043-.022.135-.056.358-.025.16-.016.105-.019.125-.032.204-.043.288-.022.143-.01.068c-.035.23-.069.461-.103.691l-.086.595-.014.097-.01.07-.02.143-.041.286-.028.206-.018.127-.014.105-.022.158-.05.364-.018.136-.006.042c-.03.23-.061.461-.091.692l-.004.029-.015.119-.053.412-.018.139-.012.095-.017.135-.029.23-.031.26-.018.141-.01.082-.014.117-.058.489-.01.079-.001.014c-.028.232-.055.464-.081.696l-.007.057-.016.144-.036.323-.02.184-.013.118-.013.117-.02.183-.035.325-.015.144-.006.056c-.025.233-.049.466-.072.699l-.002.015-.008.083-.049.486-.011.119-.009.084-.013.142-.025.259-.022.235-.013.136-.009.095-.013.139-.038.42-.011.119-.002.028c-.021.234-.042.468-.062.702l-.004.044-.011.138-.031.366-.013.162-.009.108-.01.129-.017.208-.023.293-.011.146-.006.07c-.018.236-.035.471-.053.706l-.043.608-.007.099-.005.071-.01.146-.019.293-.014.21-.009.129-.007.108-.01.162-.023.371-.009.138-.002.043c-.015.236-.028.471-.042.707l-.002.03-.006.121-.024.421-.007.141-.005.098-.007.137-.013.236-.013.264-.007.144-.004.084-.006.12-.023.496-.003.082-.001.015c-.011.237-.021.474-.03.71l-.003.058-.005.147-.013.33-.007.187-.005.12-.004.12-.007.187-.011.331-.005.147-.002.058c-.007.237-.015.475-.021.713l-.001.015-.002.083-.013.498-.003.12-.003.085-.003.145-.006.265-.005.238-.003.139-.002.098-.003.142-.007.426-.002.122-.001.03c-.004.238-.007.476-.01.714l-.001.045-.001.14-.004.374-.001.165-.002.11v.131l-.002.212-.001.298-.001.149-.001.072c-.001.24-.001.479-.001.719 0 4.517.157 8.998.465 13.438.072 1.038.153 2.074.241 3.107l.053.606c.04.45.082.899.125 1.348l.045.466.06.603c.043.418.087.836.132 1.254.427 3.942.974 7.848 1.637 11.715.111.645.225 1.289.342 1.932l.108.588c.341 1.843.709 3.676 1.103 5.499.216 1.001.44 2 .672 2.995l.059.253.109.462c.253 1.066.514 2.13.785 3.189.179.701.362 1.4.548 2.097l.154.571c.134.496.27.99.408 1.484 1.955 6.991 4.297 13.821 7.001 20.466.221.543.444 1.084.67 1.624l.116.276.226.538c.151.357.304.715.458 1.072l.231.534c.149.344.299.687.45 1.03.216.488.433.976.653 1.462.153.339.307.679.463 1.017l.096.211.244.528c.523 1.128 1.056 2.25 1.6 3.365.178.365.357.73.538 1.095.28.565.563 1.129.848 1.691.545 1.074 1.1 2.141 1.664 3.202.095.179.191.358.286.536.361.673.725 1.343 1.093 2.011l.281.506c.868 1.564 1.758 3.115 2.669 4.652l.214.36.204.342c1.788 2.988 3.655 5.923 5.599 8.804.45.666.904 1.33 1.362 1.991.223.322.448.644.674.965l.331.471c.665.941 1.338 1.875 2.02 2.804.627.853 1.26 1.702 1.901 2.544.881 1.16 1.775 2.309 2.681 3.447.997 1.252 2.008 2.49 3.035 3.716.389.464.781.927 1.174 1.388.421.493.845.984 1.271 1.473.204.234.409.468.615.702.265.301.531.601.797.9.605.679 1.215 1.354 1.83 2.024.62.676 1.244 1.347 1.874 2.014l.294.312.341.358c.414.435.831.869 1.25 1.3l.4.412c.255.26.51.52.766.779.273.277.546.552.821.826 1.092 1.094 2.198 2.174 3.317 3.24.213.204.427.407.642.609.426.403.854.804 1.284 1.203.943.874 1.894 1.739 2.854 2.595.634.565 1.272 1.125 1.914 1.682.76.659 1.524 1.313 2.294 1.96l.441.369c3.8 3.175 7.724 6.205 11.765 9.082 1.35.962 2.714 1.907 4.091 2.834.495.334.992.665 1.49.994.601.397 1.203.79 1.808 1.179 1.079.696 2.166 1.38 3.26 2.055 3.724 2.294 7.532 4.465 11.419 6.506.433.227.867.453 1.302.677 1.645.848 3.304 1.673 4.977 2.474l.086.041.525.25.153.073c.649.307 1.3.611 1.954.912l.528.242c1.876.856 3.769 1.682 5.676 2.478 1.002.418 2.008.828 3.019 1.229.865.344 1.734.682 2.605 1.014.182.069.365.138.547.207.368.139.736.276 1.104.412.366.136.734.27 1.101.404l.542.196.552.197c.955.34 1.914.673 2.876.998 1.077.364 2.159.719 3.244 1.064.561.179 1.123.354 1.685.528.751.231 1.503.457 2.257.679l.566.166.567.164c2.556.735 5.134 1.418 7.732 2.048 1.245.302 2.495.592 3.75.87l.581.128c1.914.417 3.838.805 5.773 1.164.972.181 1.946.354 2.924.52l.851.142.197.033.827.133.076.012.912.143.171.026.757.115.191.028.915.133.014.002.884.125.208.028.793.107.12.016.916.119.156.02.813.101.12.015.887.105.166.019.894.102.032.003.898.098.122.013.872.09.25.025.638.062.371.035.348.033.662.06.348.03.635.055.391.032.591.048.47.035.508.039.866.062.191.013.718.047.263.017.802.048.407.024.503.027.396.021.617.031.265.013.037.002.815.037.329.013.611.025.314.011.864.03.239.007.683.02.288.008.858.02h.019l.066.002.845.015.242.004.906.012h.016l.899.007.23.002.915.002.965-.003.296-.002.685-.005.323-.004.724-.009.219-.004.064-.001.896-.017.038-.001.192-.004.76-.019.318-.008.675-.021.243-.007.153-.006.666-.023.329-.013.793-.032.046-.002.266-.012.688-.032.363-.017.597-.031.338-.018.806-.046.507-.031.441-.028.496-.032.484-.033.419-.029.028-.002.764-.056.189-.014.905-.072.296-.024.652-.055.303-.027.055-.005.58-.052.386-.035.849-.081.337-.033.7-.071.276-.029.684-.073.3-.032.732-.082.214-.024.945-.111.173-.021.771-.095.286-.036.688-.088.271-.035.878-.118.057-.007.949-.133.228-.032.72-.105.275-.04.732-.11.21-.032.952-.148.05-.008.884-.143.241-.04.72-.12.242-.041.851-.147c56.793-9.932 105.015-44.923 132.833-93.141 114.306 5.161 207.431 92.23 222.016 203.852-.082-.321-.165-.641-.249-.961l-.004-.017c-.251-.958-.51-1.914-.776-2.867l-.009-.031c-.264-.949-.536-1.894-.815-2.836l-.006-.021-.006-.019c-.278-.941-.564-1.878-.856-2.812l-.008-.023-.006-.02c-.096-.308-.194-.616-.292-.923l-.004-.013c-.198-.62-.399-1.239-.603-1.856l-.007-.024-.006-.017c-.1-.303-.202-.606-.303-.909l-.013-.037c-.206-.612-.415-1.223-.627-1.833l-.011-.032c-.105-.3-.21-.599-.316-.899l-.008-.023-.011-.031c-.215-.608-.433-1.215-.655-1.82l-.006-.017c-.109-.297-.218-.594-.328-.891l-.012-.031-.012-.034c-.336-.903-.678-1.803-1.027-2.699l-.014-.037-.014-.033c-.114-.293-.228-.585-.344-.877l-.009-.024c-.235-.593-.472-1.185-.713-1.775l-.015-.039-.013-.032c-.118-.287-.235-.575-.354-.861l-.008-.019-.013-.032c-.241-.583-.485-1.165-.732-1.745l-.017-.039-.011-.027c-.121-.283-.242-.567-.364-.849l-.012-.029-.018-.04c-.249-.577-.501-1.153-.756-1.727l-.015-.035-.01-.02c-.124-.28-.249-.561-.375-.84l-.017-.037-.02-.045c-.259-.573-.52-1.146-.784-1.716l-.012-.026-.006-.013c-.128-.278-.258-.556-.388-.834l-.02-.043-.022-.046c-.13-.278-.261-.556-.393-.834l-.212-.443-.211-.44-.007-.014c-.133-.277-.267-.554-.402-.83l-.024-.048-.021-.043c-.133-.273-.267-.546-.401-.818l-.01-.019-.018-.037c-.275-.557-.553-1.111-.834-1.665l-.025-.051-.02-.038c-.136-.269-.273-.537-.41-.804l-.015-.03-.025-.048c-.282-.547-.566-1.094-.853-1.638l-.026-.051-.017-.032c-.14-.265-.28-.53-.421-.794l-.02-.038-.028-.053c-.29-.543-.582-1.083-.876-1.623l-.025-.045-.014-.026c-.143-.262-.287-.523-.432-.785l-.025-.046-.03-.054c-.147-.265-.294-.529-.442-.794l-.251-.448-.211-.373-.021-.036-.009-.017c-.148-.26-.296-.52-.444-.779l-.03-.053-.031-.052c-.148-.259-.297-.518-.447-.776l-.01-.018-.023-.038-.213-.367-.245-.418-.016-.028c-.152-.259-.304-.517-.458-.776l-.033-.057-.029-.048c-.151-.254-.303-.508-.455-.761l-.017-.028-.031-.051c-.313-.521-.628-1.04-.946-1.558l-.036-.058-.026-.043c-.154-.25-.308-.5-.463-.749l-.023-.038-.037-.057c-.319-.514-.641-1.025-.965-1.535l-.036-.058-.023-.035c-.157-.247-.314-.494-.472-.74l-.03-.046-.039-.06c-.162-.252-.325-.504-.488-.755l-.293-.449-.208-.317-.034-.052-.018-.027c-.161-.245-.322-.489-.484-.732l-.035-.053-.039-.059c-.164-.246-.328-.491-.492-.736l-.01-.015-.024-.036-.252-.373-.24-.355-.029-.042-.013-.019c-.165-.243-.33-.485-.496-.727l-.04-.058-.038-.056c-.166-.24-.331-.48-.498-.72l-.017-.025-.036-.051-.224-.322-.28-.4-.023-.033c-.17-.242-.34-.483-.511-.724l-.044-.062-.036-.05c-.167-.237-.335-.472-.504-.707l-.025-.035-.042-.06c-.349-.485-.7-.969-1.053-1.452l-.046-.063-.032-.043c-.17-.233-.341-.465-.513-.696l-.031-.043-.047-.063c-.355-.48-.713-.957-1.072-1.433l-.046-.061-.027-.036c-.174-.229-.348-.458-.522-.687l-.039-.051-.048-.062c-.178-.233-.357-.466-.536-.698l-.008-.01-.021-.028-.297-.383-.234-.301-.043-.056-.022-.027c-.177-.227-.355-.454-.533-.68l-.045-.057-.048-.06c-.179-.227-.359-.454-.539-.681l-.016-.02-.038-.047-.263-.329-.271-.338-.035-.044-.015-.019c-.181-.225-.364-.45-.546-.675l-.05-.061-.045-.056c-.181-.222-.363-.445-.545-.666l-.024-.03-.048-.058-.234-.284-.315-.381-.029-.035c-.186-.224-.374-.449-.561-.672l-.054-.064-.041-.05c-.184-.218-.368-.437-.552-.654l-.032-.039-.054-.063c-.382-.451-.767-.9-1.153-1.347l-.056-.064-.036-.043c-.186-.215-.373-.43-.56-.644l-.04-.046-.056-.064c-.193-.221-.387-.441-.58-.661l-.366-.413-.228-.256-.054-.061-.031-.035c-.19-.212-.379-.424-.57-.635l-.047-.053-.056-.063c-.194-.214-.387-.428-.582-.642l-.013-.015-.036-.039-.306-.336-.263-.286-.05-.055-.023-.025c-.194-.211-.387-.42-.582-.63l-.053-.058-.055-.058c-.194-.209-.389-.418-.584-.627l-.023-.024-.05-.053-.271-.289-.304-.321-.04-.043-.016-.017c-.198-.208-.396-.417-.594-.624l-.059-.062-.051-.053c-.196-.205-.393-.409-.59-.614l-.031-.032-.059-.06-.242-.25-.353-.363-.029-.03c-.203-.208-.407-.416-.611-.622l-.062-.064-.046-.046c-.198-.201-.397-.402-.597-.602l-.04-.041-.062-.063c-.415-.416-.832-.83-1.25-1.242l-.064-.063-.04-.039c-.201-.198-.402-.395-.605-.592l-.048-.047-.064-.063c-.207-.201-.415-.403-.623-.604l-.009-.009-.028-.026-.358-.344-.253-.242-.061-.059-.033-.032c-.205-.195-.41-.39-.615-.584l-.056-.053-.063-.059c-.208-.196-.416-.392-.624-.587l-.019-.018-.048-.045-.315-.294-.292-.271-.056-.051-.024-.023c-.209-.193-.418-.386-.627-.578l-.062-.057-.06-.055c-.209-.191-.418-.382-.628-.573l-.029-.026-.06-.055-.28-.253-.337-.304-.043-.038-.016-.015c-.213-.191-.427-.382-.641-.573l-.066-.059-.056-.049c-.21-.188-.421-.374-.633-.561l-.038-.033-.067-.06-.249-.218-.393-.344-.027-.023c-.219-.191-.438-.381-.657-.571l-.07-.06-.049-.042c-.213-.184-.427-.367-.64-.55l-.047-.04-.071-.06c-.221-.189-.443-.378-.666-.566l-.432-.365-.244-.204-.07-.059-.042-.035c-.216-.18-.432-.36-.648-.54l-.056-.046-.071-.058c-.221-.183-.442-.366-.664-.548l-.014-.012-.041-.033-.365-.298-.28-.228-.067-.054-.034-.028c-.219-.178-.438-.355-.658-.532l-.063-.051-.069-.054c-.221-.178-.443-.355-.666-.532l-.024-.02-.058-.046-.323-.256-.322-.254-.059-.046-.025-.02c-.223-.175-.447-.351-.671-.525l-.069-.054-.064-.05c-.223-.173-.446-.346-.669-.518l-.035-.027-.069-.053-.286-.22-.373-.286-.043-.032-.015-.011c-.228-.174-.457-.348-.686-.521l-.073-.056-.059-.043c-.224-.17-.449-.338-.674-.507l-.045-.033-.074-.056-.254-.189-.437-.324-.019-.014c-.234-.172-.468-.345-.703-.516l-.076-.056-.052-.038c-.226-.165-.453-.33-.681-.495l-.054-.039-.076-.055c-.235-.17-.47-.339-.706-.508l-.456-.326-.268-.19-.075-.053-.043-.031c-.23-.162-.46-.324-.69-.486l-.063-.043-.075-.053c-.235-.164-.469-.328-.704-.491l-.019-.013-.051-.035-.371-.257-.309-.211-.07-.049-.034-.023c-.233-.16-.467-.319-.701-.478l-.069-.047-.073-.049c-.234-.159-.469-.317-.705-.475l-.029-.02-.068-.045-.328-.22-.355-.236-.059-.04-.024-.015c-.238-.158-.476-.315-.714-.471l-.075-.05-.067-.044c-.236-.154-.472-.308-.709-.462l-.04-.026-.076-.049-.292-.189-.411-.265-.04-.025-.012-.009c-.243-.155-.486-.31-.729-.465l-.08-.051-.06-.038c-.238-.15-.475-.3-.714-.45l-.05-.032-.081-.05-.258-.162-.484-.301-.006-.003c-.248-.155-.498-.308-.747-.461l-.081-.051-.053-.031c-.239-.147-.48-.294-.72-.44l-.06-.036-.081-.049c-.247-.15-.495-.299-.743-.448l-.011-.007-.037-.022-.429-.256-.294-.174-.079-.048-.043-.025c-.243-.144-.486-.287-.729-.43l-.069-.04-.079-.046c-.247-.144-.494-.288-.741-.431l-.023-.014-.061-.035-.376-.217-.338-.194-.072-.041-.033-.019c-.246-.141-.493-.281-.74-.421l-.076-.043-.075-.042c-.247-.14-.494-.279-.742-.417l-.035-.02-.074-.041-.333-.185-.389-.216-.058-.032-.022-.012c-.251-.138-.502-.276-.754-.414l-.081-.044-.069-.037c-.248-.135-.496-.27-.745-.404l-.046-.025-.082-.044-.295-.159-.453-.241-.032-.018-.011-.005c-.256-.136-.513-.272-.77-.407l-.085-.045-.061-.032c-.249-.131-.5-.262-.75-.392l-.056-.029-.086-.044c-.26-.135-.52-.269-.781-.403l-.512-.262-.279-.141-.085-.043-.052-.027c-.253-.127-.505-.254-.758-.38l-.066-.033-.084-.043c-.259-.129-.518-.257-.778-.385l-.015-.008-.048-.023-.431-.212-.32-.157-.082-.04-.042-.02c-.255-.124-.511-.248-.767-.371l-.074-.036-.082-.039c-.258-.124-.517-.247-.775-.37l-.028-.013-.069-.032-.379-.18-.368-.172-.072-.034-.031-.015c-.259-.121-.519-.242-.779-.361l-.081-.038-.076-.035c-.259-.119-.518-.238-.777-.356l-.04-.018-.08-.037-.336-.153-.425-.191-.054-.024-.019-.009c-.264-.118-.528-.236-.793-.353l-.086-.039-.069-.03c-.26-.115-.52-.229-.78-.343l-.051-.023-.087-.037-.298-.13-.494-.214-.03-.013c-.27-.116-.54-.232-.81-.346l-.089-.038-.06-.026c-.262-.111-.523-.221-.785-.331l-.062-.025-.089-.037c-.271-.114-.542-.226-.813-.338l-.529-.217-.303-.124-.088-.036-.051-.02c-.264-.107-.528-.214-.792-.32l-.071-.028-.088-.035c-.269-.108-.539-.215-.809-.322l-.02-.008-.056-.022-.433-.17-.347-.135-.083-.032-.04-.016c-.267-.103-.534-.206-.802-.309l-.079-.03-.084-.032c-.268-.102-.537-.204-.807-.306l-.033-.013-.075-.028-.381-.143-.399-.148-.071-.026-.028-.011c-.271-.1-.542-.2-.814-.299l-.086-.031-.077-.028c-.269-.098-.539-.196-.808-.293l-.045-.016-.086-.03-.337-.121-.462-.163-.048-.018-.016-.005c-.275-.097-.551-.194-.828-.29l-.09-.032-.07-.023c-.27-.094-.541-.187-.811-.28l-.056-.019-.092-.031-.298-.101-.539-.182-.013-.004c-.282-.095-.564-.189-.847-.282l-.092-.03-.06-.02c-.272-.09-.544-.178-.817-.267l-.066-.022-.092-.029c-.281-.091-.562-.181-.843-.27l-.011-.004-.037-.012-.493-.156-.328-.102-.09-.028-.049-.016c-.275-.085-.549-.17-.824-.255l-.076-.023-.09-.027c-.279-.086-.558-.17-.838-.255l-.024-.007-.065-.02-.432-.129-.375-.111-.082-.024-.039-.012c-.277-.081-.555-.163-.833-.243l-.084-.025-.085-.024c-.278-.08-.557-.16-.836-.239l-.038-.011-.081-.023-.381-.108-.431-.12-.067-.019-.025-.007c-.282-.078-.564-.156-.847-.233l-.09-.025-.077-.02c-.279-.076-.558-.151-.837-.226l-.05-.013-.091-.024-.336-.09-.499-.131-.04-.01-.013-.004c-.287-.075-.574-.149-.861-.222l-.094-.024-.069-.018c-.28-.071-.56-.142-.84-.212l-.061-.016-.095-.023c-.292-.073-.584-.145-.876-.216l-.574-.139-.307-.074-.094-.023-.059-.014c-.282-.067-.564-.133-.846-.199l-.071-.017-.095-.022c-.289-.067-.578-.134-.868-.2l-.015-.003-.048-.011-.489-.111-.352-.078-.091-.02-.048-.011c-.284-.063-.568-.125-.853-.187l-.081-.018-.09-.019c-.288-.062-.576-.124-.864-.185l-.029-.006-.073-.015-.429-.09-.403-.083-.08-.017-.036-.007c-.287-.059-.575-.117-.863-.175l-.088-.018-.085-.017c-.287-.057-.575-.114-.862-.17l-.042-.008-.088-.017-.378-.073-.464-.088-.061-.012-.023-.004c-.292-.055-.584-.11-.876-.163l-.094-.018-.077-.014c-.287-.052-.575-.104-.863-.155l-.054-.01-.095-.017-.334-.059-.538-.094-.038-.006c-.297-.052-.594-.102-.892-.152l-.097-.016-.068-.011c-.288-.048-.577-.096-.866-.143l-.066-.01-.097-.016c-.299-.048-.599-.096-.898-.143l-.584-.09-.329-.05-.096-.014-.057-.009c-.291-.043-.581-.087-.872-.129l-.076-.011-.096-.014c-.296-.043-.593-.085-.89-.127l-.02-.002-.058-.008-.483-.067-.377-.051-.09-.013-.046-.006c-.293-.039-.586-.078-.879-.115l-.085-.012-.092-.011c-.295-.038-.59-.075-.886-.112l-.034-.004-.079-.01-.425-.052-.431-.051-.078-.01-.032-.004c-.296-.034-.593-.069-.89-.102l-.092-.011-.085-.009c-.295-.033-.589-.066-.884-.098l-.047-.005-.093-.009-.374-.04-.496-.052-.055-.005-.019-.002c-.301-.031-.602-.061-.903-.09l-.098-.009-.076-.008c-.295-.028-.59-.056-.885-.083l-.06-.005-.098-.009-.33-.03-.578-.05-.02-.002c-.307-.026-.614-.052-.92-.077l-.1-.008-.066-.005c-.296-.024-.592-.047-.889-.069l-.07-.006-.1-.007c-.305-.023-.611-.045-.917-.066l-.591-.04-.351-.023-.097-.007-.055-.003c-.298-.019-.596-.038-.894-.055l-.081-.005-.097-.006c-.303-.017-.606-.035-.909-.051l-.025-.001-.067-.004-.476-.025-.4-.019-.09-.005-.043-.002c-.3-.014-.601-.028-.902-.041l-.089-.004-.092-.004c-.302-.012-.603-.025-.905-.036l-.039-.002-.086-.003-.418-.015-.459-.015-.074-.003-.029-.001c-.304-.009-.609-.018-.913-.026l-.097-.003-.084-.002c-.301-.008-.602-.016-.903-.022l-.052-.001-.097-.002-.369-.008-.529-.009-.046-.001h-.015c-.309-.005-.618-.009-.927-.012l-.101-.002h-.075c-.301-.004-.603-.006-.905-.008h-.064-.101l-.325-.002-.619-.001c-1.445 0-2.886.016-4.324.048l-.615.015c-.404.01-.808.021-1.211.034-1.089.035-2.176.078-3.261.131-.67.032-1.339.068-2.007.108l-.263.015-.183.011c-.396.025-.792.05-1.188.077-1.295.087-2.586.187-3.874.3-.558.049-1.115.101-1.672.155-.674.065-1.347.133-2.019.205-.333.036-.667.073-1 .11-1.027.116-2.052.24-3.074.371-.493.064-.986.13-1.479.197-.925.126-1.848.26-2.769.4-.945.143-1.888.294-2.828.451l-.343.057-.173.03c-1.809.308-3.61.641-5.402.999l-.304.061c-1.933.389-3.855.808-5.766 1.255l-.049.012-.204.048c-1.177.277-2.351.566-3.52.865-.95.243-1.898.493-2.843.75-.419.115-.838.23-1.256.347-.504.141-1.007.284-1.51.429-.355.103-.711.206-1.065.311-.532.157-1.063.316-1.592.477l-.564.172c-37.052 11.409-69.324 33.768-93.031 63.293l-.601.753-.033.04-.546.691-.073.093-.577.738-.566.732-.084.109-.534.697-.027.035-.571.753-.058.078-.501.668-.085.113-.554.748-.538.733-.098.134-.502.692-.034.047-.542.754-.079.112-.461.648-.094.133-.531.756-.005.007-.507.729-.109.158-.473.688-.04.058-.512.754-.097.144-.424.63-.102.152-.501.755-.041.062-.452.687-.118.181-.445.684-.045.069-.485.755-.11.173-.39.613-.109.171-.473.754-.069.11-.404.651-.126.203-.419.683-.048.078-.458.755-.121.201-.359.598-.113.189-.446.753-.09.153-.363.619-.131.226-.395.683-.05.085-.432.755-.129.227-.33.585-.117.207-.419.751-.106.191-.327.593-.135.246-.373.685-.048.089-.008.015-.4.742-.135.253-.303.571-.119.225-.394.75-.118.226-.294.568-.137.267-.353.69-.04.077-.049.096-.34.675-.139.277-.279.559-.12.242-.369.749-.125.258-.266.547-.138.287-.334.696-.031.065-.077.162-.294.622-.14.3-.255.547-.121.259-.344.748-.131.288-.239.526-.138.307-.317.708-.021.047-.097.219-.255.578-.141.322-.232.535-.121.278-.319.746-.134.315-.215.508-.137.326-.302.726-.01.023-.11.268-.222.542-.14.344-.211.523-.119.295-.296.745-.134.341-.192.49-.135.346-.287.744-.118.31-.194.511-.137.364-.191.511-.115.308-.022.059-.253.689-.133.366-.171.474-.132.365-.263.741-.121.346-.169.483-.134.385-.171.497-.107.314-.039.114-.211.626-.111.329-.242.732-.032.094c-6.186 18.816-9.533 38.914-9.533 59.788 0 33.291 8.513 64.609 23.48 91.895-41.487 66.397-115.237 110.605-199.23 110.605-33.767 0-65.878-7.145-94.904-20.004.28.089.56.177.839.265l.022.007.034.01c.552.173 1.104.344 1.658.512l.035.01.044.014c.547.165 1.095.328 1.643.489l.046.014.05.014c.544.159 1.089.316 1.635.471l.056.015.049.014c.544.154 1.089.305 1.636.454l.062.017.046.012c.273.075.547.148.821.222l.497.132.324.085.065.017.041.011c.271.071.543.141.814.211l.024.006.054.014.398.102.366.092.063.016.033.008c.27.068.54.136.811.202l.039.01.07.017.343.085.416.101.055.013.023.005c.27.066.539.13.81.194l.053.013.079.018.296.07.477.111.035.008.012.003c.27.062.541.124.811.186l.066.015.081.018c.541.122 1.082.242 1.625.36l.076.016.08.017c.54.117 1.081.231 1.623.343l.086.018.074.015c.27.056.54.111.81.166l.012.002.04.008.492.098.274.054.093.019.066.012c.268.053.537.105.805.157l.028.005.072.014.421.08.313.058.095.018.057.01c.267.05.535.099.803.148l.043.008.09.016.364.066.357.063.093.017.045.007c.267.048.535.094.803.14l.057.01.099.017.316.054.41.068.082.014.033.006c.268.044.536.088.805.132l.07.011.101.016.275.044.474.075.06.01.019.003c.27.042.54.084.81.124l.082.013.099.015.237.036.581.086c.272.04.544.079.817.118l.093.013.092.013c.272.038.544.076.817.114l.581.078.24.032.102.014.084.01c.27.036.541.071.811.105l.023.003.07.009.465.059.278.034.106.013.074.009c.27.032.539.065.809.096l.038.005.094.011.401.046.319.036.108.013.062.006c.269.031.539.06.809.089l.053.006.106.011.349.037.365.038.104.011.049.005c.27.027.54.054.81.081l.067.006.111.011.304.029.422.04.091.009.034.003c.271.025.543.049.814.073l.08.007.109.01.266.023.49.041.065.006.019.001c.274.023.547.045.821.066l.091.007.104.008.23.018.602.045c.276.02.553.04.829.059l.101.007.096.006c.275.019.551.037.826.054l.013.001.047.003.53.033.25.015.109.006.086.005c.274.016.548.031.822.046l.029.002.084.004.453.024.288.014.113.006.075.003c.273.013.547.026.821.038l.044.002.103.004.393.017.332.013.113.005.061.002c.274.011.548.021.822.03l.058.002.112.004.343.011.382.012.106.003.048.001c.275.008.549.016.824.022l.073.002.114.003.299.007.442.009.09.002.032.001c.277.005.553.01.829.014l.085.001.111.002.262.003.516.006.059.001h.016c.279.003.557.005.836.006l.096.001h.105c.282.001.563.002.845.002l.619-.001.314-.001c1.751-.009 3.497-.041 5.237-.096.205-.006.409-.013.614-.02l.614-.023c.614-.023 1.226-.049 1.838-.078 0 0 .063-.003.063-.003 1.927-.093 3.846-.213 5.757-.363l.276-.021.607-.049.606-.051.372-.033c.874-.076 1.746-.159 2.617-.247.212-.022.425-.044.637-.066l.602-.064.602-.066.602-.068.041-.005c1.466-.168 2.927-.352 4.382-.554.719-.099 1.436-.202 2.153-.309.665-.1 1.329-.203 1.992-.31.489-.078.977-.158 1.464-.24l.101-.017.205-.035c.55-.094 1.1-.19 1.649-.288.497-.09.994-.181 1.49-.274l.191-.035.587-.112c.453-.087.906-.176 1.358-.266l.399-.08.575-.116c.782-.161 1.562-.326 2.341-.495l.581-.128.027-.006c.594-.131 1.187-.266 1.779-.403 4.415-1.022 8.773-2.197 13.066-3.518l.073-.023c.441-.136.882-.274 1.322-.413.302-.096.605-.192.907-.289 1.262-.407 2.518-.826 3.768-1.257l.075-.026.554-.192c3.314-1.157 6.586-2.402 9.815-3.733l.024-.01.423-.175c5.965-2.478 11.778-5.248 17.421-8.293.997-.537 1.988-1.084 2.974-1.639l.738-.417c.636-.362 1.27-.728 1.902-1.096 1.731-1.011 3.444-2.048 5.14-3.11.536-.337 1.071-.676 1.604-1.017 9.199-5.893 17.862-12.551 25.899-19.883.449-.41.896-.822 1.342-1.236 1.731-1.61 3.431-3.25 5.102-4.922 2.417-2.419 4.77-4.903 7.056-7.449l.384-.428c.893-1 1.775-2.009 2.647-3.028l.374-.438c.241-.283.481-.568.721-.852 1.017-1.209 2.018-2.431 3.005-3.665l.292-.366.358-.451c.238-.3.475-.602.711-.904l.13-.167c1.687-2.165 3.329-4.367 4.924-6.604.398-.558.793-1.119 1.185-1.681l.246-.354.328-.474.326-.476.266-.389c1.54-2.262 3.033-4.559 4.478-6.888l.285-.461.075-.122c1.386-2.254 2.728-4.54 4.023-6.855l.281-.505.281-.506.082-.15c.252-.457.501-.916.749-1.375l.275-.51c.141-.264.282-.528.421-.792.641-1.21 1.269-2.427 1.884-3.652.164-.325.326-.65.487-.976l.125-.252.256-.521c.116-.236.231-.472.345-.708.873-1.801 1.718-3.617 2.535-5.448.143-.32.285-.641.426-.962 1.237-2.814 2.408-5.662 3.511-8.545l.14-.365.092-.242c.453-1.196.894-2.397 1.324-3.604.144-.405.287-.811.429-1.218.143-.41.284-.821.424-1.232.195-.573.388-1.148.578-1.724.766-2.321 1.489-4.662 2.168-7.021.185-.644.367-1.289.545-1.936.568-2.056 1.103-4.126 1.603-6.209.254-1.057.499-2.117.735-3.18.152-.684.3-1.369.445-2.055.515-2.446.983-4.909 1.403-7.388.091-.536.18-1.072.266-1.609.713-4.435 1.274-8.92 1.677-13.451l.052-.595.035-.422c.022-.264.044-.527.065-.791l.047-.607c.139-1.823.252-3.652.34-5.489l.028-.612c.031-.695.058-1.391.081-2.089.022-.635.04-1.272.055-1.909.007-.306.014-.612.02-.919l.011-.616c.005-.356.01-.712.013-1.069.008-.673.011-1.347.011-2.022 0-.471-.002-.941-.005-1.411l-.004-.445-.006-.513c-.005-.49-.013-.98-.023-1.469-.007-.368-.015-.735-.025-1.101l-.016-.616c-.021-.716-.045-1.432-.074-2.146-.041-1.057-.092-2.111-.151-3.163-.09-1.614-.201-3.223-.331-4.826l-.02-.249-.021-.243c-.047-.568-.097-1.135-.15-1.702-.713-7.685-1.881-15.239-3.477-22.634-.1-.464-.201-.927-.305-1.389-.228-1.021-.464-2.038-.709-3.052l-.027-.113c-.325-1.347-.665-2.688-1.019-4.023-.191-.725-.388-1.448-.587-2.168-.336-1.208-.682-2.411-1.041-3.609l-.107-.359-.081-.267c-.229-.755-.462-1.509-.7-2.26-.307-.972-.622-1.939-.944-2.904-.164-.491-.33-.98-.498-1.469-.132-.385-.265-.769-.4-1.153-.122-.349-.246-.698-.37-1.046-.181-.508-.365-1.015-.551-1.521l-.162-.442-.158-.424-.176-.471-.133-.354-.209-.552-.046-.122-.257-.667-.078-.203-.237-.609-.073-.186-.269-.68-.049-.125-.321-.8-.077-.192-.255-.627-.076-.186-.258-.627-.105-.251-.245-.588-.107-.254-.246-.582-.112-.261-.244-.571-.118-.273-.241-.554-.127-.291-.234-.531-.141-.318-.221-.497-.161-.357-.203-.45-.186-.409-.188-.411-.169-.367-.289-.625-.008-.015-.383-.818-.38-.8-.016-.033-.386-.804-.005-.01-.369-.759-.04-.081-.368-.749-.061-.123-.261-.523-.213-.425-.286-.567-.018-.036-.376-.737-.035-.069-.41-.793-.406-.778-.11-.207-.274-.52-.237-.444-.185-.347-.236-.438-.19-.35-.235-.433-.194-.354-.235-.426-.209-.379-.15-.269-.275-.493-.194-.344-.26-.461-.2-.351-.255-.447-.221-.383-.234-.405-.276-.473-.242-.414-.23-.391-.365-.615-.167-.281-.36-.598-.163-.271-.396-.652-.125-.205-.532-.864-.533-.854-.138-.22-.396-.627-.175-.276-.368-.576-.183-.285-.38-.587-.167-.257-.46-.703-.087-.133-.556-.839-.126-.188-.427-.637-.195-.288-.365-.537-.215-.315-.354-.516-.217-.315-.373-.536-.198-.284-.538-.764-.021-.031-.14-.196-.428-.602-.448-.624-.354-.489-.206-.284-.117-.16-.436-.594-.251-.34-.323-.436-.266-.357-.313-.418-.27-.357-.317-.419-.265-.348-.333-.435-.251-.327-.37-.477-.217-.28-.487-.622-.105-.133-.197-.25-.325-.41-.232-.292-.291-.364-.25-.311-.271-.336-.269-.333-.206-.252-.413-.505-.214-.261-.349-.423-.227-.272-.35-.421-.227-.27-.355-.422-.223-.263-.365-.43-.228-.267-.314-.366-.384-.446-.092-.106-.512-.589-.129-.146-.459-.523-.077-.088-.52-.586-.132-.148-.481-.537-.057-.064-.527-.584-.135-.147-.511-.561-.028-.031-.537-.583-.135-.146-.54-.581-.019-.02-.529-.564-.134-.143-.545-.575-.045-.048-.513-.536-.131-.137-.55-.569-.065-.067-.504-.518-.126-.129-.556-.566-.079-.079-.503-.508-.118-.119-.564-.563-.088-.087-.508-.503-.108-.106-.572-.561-.094-.091-.52-.505-.092-.09-.583-.561z" transform="matrix(.259982 0 0 .259982 -5.11075 -5.11075)"/><path d="m106.459 139.152h-39.426v104.848h39.426zm-57.033 0h-39.426v104.848h39.426z"/></g></svg>