<svg width="16" height="16" version="1.1" viewBox="0 0 32 32" xmlns="http://www.w3.org/2000/svg"><g transform="matrix(1 0 0 1.1456 0 -2.3279)" fill="#d2d2d2"><path d="m32 17.543v-3.2031l-4.4336-1.2812-1.0273-2.1797 2.0078-3.6758-2.582-2.2617-4.1367 1.8203-2.4922-0.90234-1.5742-3.8398h-3.6602l-1.4375 3.8789-2.5391 0.89844-4.2031-1.7539-2.5859 2.2539 2.082 3.625-1.0312 2.1797-4.3867 1.3555v3.1836l4.4336 1.2812 1.0273 2.1797-2.0078 3.6797 2.582 2.2617 4.1367-1.8242 2.4922 0.90234 1.5742 3.8359h3.6367l1.4375-3.8789 2.5391-0.89844 4.207 1.7617 2.582-2.2617-2.1016-3.6211 1.0742-2.1797 4.3867-1.3789zm-16 4.457c-3.793 0-6.8555-2.6797-6.8555-6s3.0625-6 6.8555-6 6.8555 2.6797 6.8555 6-3.0625 6-6.8555 6z" fill="#d2d2d2" fill-rule="evenodd"/></g></svg>
