<svg xmlns="http://www.w3.org/2000/svg" width="16" height="16" viewBox="0 0 16 16"><path fill-rule="evenodd" fill="#d2d2d2" d="M10 5H9V4h1v1zM3 6H2v1h1V6zm5-2H7v1h1V4zM4 4H2v1h2V4zm8 7h2v-1h-2v1zM8 7h1V6H8v1zm-4 3H2v1h2v-1zm8-6h-1v1h1V4zm2 0h-1v1h1V4zm-2 5h2V6h-2v3zm4-6v9c0 .55-.45 1-1 1H1c-.55 0-1-.45-1-1V3c0-.55.45-1 1-1h14c.55 0 1 .45 1 1zm-1 0H1v9h14V3zM6 7h1V6H6v1zm0-3H5v1h1V4zM4 7h1V6H4v1zm1 4h6v-1H5v1zm5-4h1V6h-1v1zM3 8H2v1h1V8zm5 0v1h1V8H8zM6 8v1h1V8H6zM5 8H4v1h1V8zm5 1h1V8h-1v1z"/></svg>
