<?xml version="1.0" encoding="UTF-8"?>
<svg xmlns="http://www.w3.org/2000/svg" height="16px" viewBox="0 0 16 16" width="16px"><g fill="#fefefe"><path d="m 2.984375 1.003906 c -1.664063 0 -3 1.339844 -3 3 v 7 c 0 1.664063 1.335937 3 3 3 h 10 c 1.660156 0 3 -1.335937 3 -3 v -7 c 0 -1.660156 -1.339844 -3 -3 -3 z m 0 2 h 10 c 0.550781 0 1 0.445313 1 1 v 7 c 0 0.554688 -0.449219 1 -1 1 h -10 c -0.554687 0 -1 -0.445312 -1 -1 v -7 c 0 -0.554687 0.445313 -1 1 -1 z m 0 0"/><path d="m 7.984375 16.003906 c 3 0 4 -1 4 -1 h -8 s 1 1 4 1 z m 0 0"/></g></svg>
