<?xml version="1.0" encoding="UTF-8"?>
<svg height="16px" viewBox="0 0 16 16" width="16px" xmlns="http://www.w3.org/2000/svg">
    <path d="m 13.855469 0 l -1.539063 1.4375 c -0.453125 0.421875 -0.53125 1.148438 -0.269531 1.707031 l -5.886719 5.996094 c -0.011718 0 -0.019531 0 -0.03125 0 c -0.257812 -0.128906 -0.550781 -0.183594 -0.839844 -0.148437 c -0.328124 0.046874 -0.632812 0.199218 -0.867187 0.441406 l -3.945313 3.996094 c -0.3906245 0.375 -0.5468745 0.933593 -0.4062495 1.457031 c 0.1406255 0.523437 0.5546875 0.929687 1.0820315 1.058593 c 0.527344 0.132813 1.082031 -0.03125 1.453125 -0.425781 l 3.945312 -3.996093 c 0.472657 -0.453126 0.59375 -1.15625 0.296875 -1.738282 l 5.890625 -5.964844 c 0.558594 0.25 1.273438 0.148438 1.707031 -0.289062 l 1.414063 -1.5625 z m -10.308594 0.0898438 c -0.398437 0 -0.785156 0.0937502 -1.140625 0.2187502 l 1.882812 1.878906 c 0.390626 0.382812 0.390626 1 0 1.386719 l -0.710937 0.707031 c -0.386719 0.386719 -1 0.386719 -1.390625 0 l -1.882812 -1.878906 c -0.125 0.355468 -0.2187505 0.742187 -0.2187505 1.140625 c 0 1.90625 1.5507815 3.453125 3.4609375 3.453125 c 0.402344 0 0.789063 -0.09375 1.144531 -0.21875 l 1.175782 1.171875 h 0.058593 l 2.070313 -2.0625 l -1.203125 -1.203125 c 0.125 -0.359375 0.214843 -0.742188 0.214843 -1.140625 c 0 -1.90625 -1.546874 -3.4531252 -3.460937 -3.4531252 z m 6.550781 7.8906252 l -2.070312 2.066406 c 0.011718 0.027344 0.023437 0.058594 0.03125 0.089844 l 1.144531 1.140625 c -0.125 0.355468 -0.21875 0.742187 -0.21875 1.140625 c 0 1.902343 1.550781 3.449219 3.460937 3.449219 c 0.433594 0 0.855469 -0.101563 1.238282 -0.246094 l -2.007813 -2 c -0.386719 -0.386719 -0.386719 -1.035156 0 -1.417969 l 0.679688 -0.679687 c 0.195312 -0.191407 0.457031 -0.308594 0.710937 -0.308594 s 0.515625 0.117187 0.710938 0.308594 l 1.945312 1.941406 c 0.105469 -0.328125 0.183594 -0.683594 0.183594 -1.046875 c 0 -1.90625 -1.546875 -3.453125 -3.460938 -3.453125 c -0.398437 0 -0.785156 0.09375 -1.140624 0.21875 z m 0 0" fill="#fefefe"/>
</svg>
