<?xml version="1.0" encoding="UTF-8"?>
<svg xmlns="http://www.w3.org/2000/svg" height="16px" viewBox="0 0 16 16" width="16px"><path d="m 1 2 c -0.554688 0 -1 0.445312 -1 1 v 10 c 0 0.554688 0.445312 1 1 1 h 14 c 0.554688 0 1 -0.445312 1 -1 v -10 c 0 -0.554688 -0.445312 -1 -1 -1 z m 1.25 2 h 1.5 c 0.140625 0 0.25 0.113281 0.25 0.25 v 1.5 c 0 0.136719 -0.109375 0.25 -0.25 0.25 h -1.5 c -0.136719 0 -0.25 -0.113281 -0.25 -0.25 v -1.5 c 0 -0.136719 0.113281 -0.25 0.25 -0.25 z m 3 0 h 1.5 c 0.140625 0 0.25 0.113281 0.25 0.25 v 1.5 c 0 0.136719 -0.109375 0.25 -0.25 0.25 h -1.5 c -0.136719 0 -0.25 -0.113281 -0.25 -0.25 v -1.5 c 0 -0.136719 0.113281 -0.25 0.25 -0.25 z m 3 0 h 1.5 c 0.140625 0 0.25 0.113281 0.25 0.25 v 1.5 c 0 0.136719 -0.109375 0.25 -0.25 0.25 h -1.5 c -0.136719 0 -0.25 -0.113281 -0.25 -0.25 v -1.5 c 0 -0.136719 0.113281 -0.25 0.25 -0.25 z m 3 0 h 1.5 c 0.140625 0 0.25 0.113281 0.25 0.25 v 1.5 c 0 0.136719 -0.109375 0.25 -0.25 0.25 h -1.5 c -0.136719 0 -0.25 -0.113281 -0.25 -0.25 v -1.5 c 0 -0.136719 0.113281 -0.25 0.25 -0.25 z m -8 3 h 1.5 c 0.140625 0 0.25 0.113281 0.25 0.25 v 1.5 c 0 0.136719 -0.109375 0.25 -0.25 0.25 h -1.5 c -0.136719 0 -0.25 -0.113281 -0.25 -0.25 v -1.5 c 0 -0.136719 0.113281 -0.25 0.25 -0.25 z m 3 0 h 1.5 c 0.140625 0 0.25 0.113281 0.25 0.25 v 1.5 c 0 0.136719 -0.109375 0.25 -0.25 0.25 h -1.5 c -0.136719 0 -0.25 -0.113281 -0.25 -0.25 v -1.5 c 0 -0.136719 0.113281 -0.25 0.25 -0.25 z m 3 0 h 1.5 c 0.140625 0 0.25 0.113281 0.25 0.25 v 1.5 c 0 0.136719 -0.109375 0.25 -0.25 0.25 h -1.5 c -0.136719 0 -0.25 -0.113281 -0.25 -0.25 v -1.5 c 0 -0.136719 0.113281 -0.25 0.25 -0.25 z m 3 0 h 1.5 c 0.140625 0 0.25 0.113281 0.25 0.25 v 1.5 c 0 0.136719 -0.109375 0.25 -0.25 0.25 h -1.5 c -0.136719 0 -0.25 -0.113281 -0.25 -0.25 v -1.5 c 0 -0.136719 0.113281 -0.25 0.25 -0.25 z m -10 3 h 1.5 c 0.140625 0 0.25 0.113281 0.25 0.25 v 1.5 c 0 0.136719 -0.109375 0.25 -0.25 0.25 h -1.5 c -0.136719 0 -0.25 -0.113281 -0.25 -0.25 v -1.5 c 0 -0.136719 0.113281 -0.25 0.25 -0.25 z m 3 0 h 5.5 c 0.140625 0 0.25 0.113281 0.25 0.25 v 1.5 c 0 0.136719 -0.109375 0.25 -0.25 0.25 h -5.5 c -0.136719 0 -0.25 -0.113281 -0.25 -0.25 v -1.5 c 0 -0.136719 0.113281 -0.25 0.25 -0.25 z m 7 0 h 2.5 c 0.140625 0 0.25 0.113281 0.25 0.25 v 1.5 c 0 0.136719 -0.109375 0.25 -0.25 0.25 h -2.5 c -0.136719 0 -0.25 -0.113281 -0.25 -0.25 v -1.5 c 0 -0.136719 0.113281 -0.25 0.25 -0.25 z m 0 0" fill="#fefefe"/></svg>
