<svg version="1.1" xmlns="http://www.w3.org/2000/svg" viewBox="0 0 128 128"><g fill="#000000"><path d="M64,0C28.65,0,0,28.65,0,64c0,35.35,28.65,64,64,64s64-28.65,64-64C128,28.65,99.35,0,64,0z M64,17c5.52,0,10,4.48,10,10c0,5.52-4.48,10-10,10s-10-4.48-10-10C54,21.48,58.48,17,64,17z M92.86,42.33L71,54.95c0,0.02,0,0.03,0,0.05v21.77l15.33,26.55c1.38,2.39,0.56,5.45-1.83,6.83c-2.39,1.38-5.45,0.56-6.83-1.83L64,84.64l-13.67,23.68c-1.38,2.39-4.44,3.21-6.83,1.83c-2.39-1.38-3.21-4.44-1.83-6.83L57,76.77V55c0-0.02,0-0.03,0-0.05L35.14,42.33c-2.39-1.38-3.21-4.44-1.83-6.83c1.38-2.39,4.44-3.21,6.83-1.83L64,47.44l23.86-13.77c2.39-1.38,5.45-0.56,6.83,1.83C96.07,37.89,95.25,40.95,92.86,42.33z"/></g></svg>
