<svg height="16" viewBox="0 0 16 16" width="16" xmlns="http://www.w3.org/2000/svg"><path d="m4.48 7.27c.26.26 1.28 1.33 1.28 1.33l.56-.58-.88-.91 1.69-1.8s-.76-.74-.43-.45c.32-1.19.03-2.51-.87-3.44-.9-.92-2.17-1.22-3.31-.91l1.93 2-.51 1.96-1.89.52-1.93-2c-.31 1.18-.02 2.49.88 3.41.94.98 2.29 1.26 3.48.87zm6.44 1.94-2.33 2.3 3.84 3.98c.31.33.73.49 1.14.49s.82-.16 1.14-.49c.63-.65.63-1.7 0-2.35zm5.08-6.68-2.45-2.53-7.22 7.46.88.91-4.31 4.46-.99.53-1.39 2.27.35.37 2.2-1.44.51-1.02 4.32-4.46.88.91z" fill-rule="evenodd"/></svg>