<?xml version="1.0" encoding="UTF-8"?>
<svg height="16px" viewBox="0 0 16 16" width="16px" xmlns="http://www.w3.org/2000/svg">
    <path d="m 1.957031 2.023438 c -0.125 0.003906 -0.25 0.054687 -0.34375 0.152343 l -0.238281 0.25 c -0.933594 0.96875 -1.3984375 2.273438 -1.3984375 3.574219 s 0.4648435 2.605469 1.3984375 3.574219 l 0.238281 0.25 c 0.1875 0.199219 0.503907 0.203125 0.699219 0.015625 c 0.199219 -0.191406 0.207031 -0.503906 0.015625 -0.703125 l -0.234375 -0.25 c -1.46875 -1.53125 -1.46875 -4.238281 0 -5.773438 l 0.234375 -0.25 c 0.191406 -0.199219 0.183594 -0.511719 -0.015625 -0.703125 c -0.097656 -0.09375 -0.226562 -0.140625 -0.355469 -0.136718 z m 12.039063 0 c -0.128906 -0.003907 -0.257813 0.042968 -0.355469 0.136718 c -0.199219 0.191406 -0.203125 0.503906 -0.015625 0.703125 l 0.238281 0.25 c 1.46875 1.535157 1.46875 4.242188 0 5.773438 l -0.238281 0.25 c -0.1875 0.199219 -0.183594 0.511719 0.015625 0.703125 c 0.199219 0.1875 0.511719 0.183594 0.703125 -0.015625 l 0.238281 -0.246094 c 0.929688 -0.972656 1.394531 -2.277344 1.394531 -3.578125 s -0.464843 -2.601562 -1.394531 -3.574219 l -0.238281 -0.25 c -0.09375 -0.097656 -0.21875 -0.148437 -0.347656 -0.152343 z m -10.539063 1.492187 c -0.113281 0.007813 -0.222656 0.046875 -0.3125 0.128906 l -0.273437 0.25 c -0.613282 0.554688 -0.90625 1.34375 -0.902344 2.125 c 0.007812 0.777344 0.3125 1.550781 0.902344 2.085938 l 0.273437 0.25 c 0.203125 0.1875 0.519531 0.171875 0.703125 -0.03125 s 0.171875 -0.519531 -0.03125 -0.703125 l -0.273437 -0.246094 c -0.699219 -0.636719 -0.746094 -2.070312 0 -2.75 l 0.273437 -0.246094 c 0.203125 -0.183594 0.214844 -0.496094 0.03125 -0.703125 c -0.105468 -0.113281 -0.25 -0.167969 -0.390625 -0.160156 z m 8.992188 0 c -0.125 0.007813 -0.25 0.058594 -0.34375 0.160156 c -0.183594 0.207031 -0.167969 0.519531 0.035156 0.703125 l 0.273437 0.246094 c 0.742188 0.679688 0.695313 2.113281 0 2.75 l -0.273437 0.246094 c -0.203125 0.183594 -0.21875 0.5 -0.035156 0.703125 c 0.1875 0.203125 0.5 0.21875 0.707031 0.03125 l 0.269531 -0.25 c 0.589844 -0.535157 0.894531 -1.308594 0.902344 -2.085938 c 0.007813 -0.78125 -0.289063 -1.570312 -0.902344 -2.125 l -0.269531 -0.25 c -0.101562 -0.09375 -0.234375 -0.132812 -0.363281 -0.128906 z m -7.699219 1.484375 c -0.289062 0 -0.550781 0.164062 -0.675781 0.425781 c -0.125 0.257813 -0.089844 0.566407 0.089843 0.792969 l 2.835938 3.542969 v 6.238281 h 2 v -6.238281 l 2.835938 -3.542969 c 0.179687 -0.226562 0.214843 -0.535156 0.089843 -0.792969 c -0.125 -0.261719 -0.386719 -0.425781 -0.675781 -0.425781 z m 1.5625 1.5 h 3.375 l -1.6875 2.113281 z m 0 0" fill="#000000"/>
</svg>
