<?xml version="1.0" encoding="UTF-8"?>
<svg width="92px" height="80px" viewBox="0 0 92 80" version="1.1" xmlns="http://www.w3.org/2000/svg" xmlns:xlink="http://www.w3.org/1999/xlink">
    <!-- Generator: Sketch 54.1 (76490) - https://sketchapp.com -->
    <title>path-1</title>
    <desc>Created with Sketch.</desc>
    <defs>
        <path d="M69.56666,53.60976 L87.77194,43.09608 L69.56666,74.637126 L69.56666,53.60976 Z M53.23406,63.042 L65.9537,77.733276 L27.79479,77.733276 L53.23406,63.042 Z M22.43334,45.25457 L22.43334,74.637126 L3.353958,41.58172 L22.43334,45.25457 Z M22.43334,26.3901 L4.228059,36.90378 L22.43334,5.36287 L22.43334,26.3901 Z M38.76608,16.95786 L26.0463,2.26658 L64.20536,2.26658 L38.76608,16.95786 Z M69.56666,34.74543 L69.56666,5.36287 L88.64618,38.41828 L69.56666,34.74543 Z M69.56666,50.99243 L69.56666,37.05366 L87.66898,40.53838 L69.56666,50.99243 Z M67.30068,54.91829 L67.30068,75.826798 L55.23237,61.88803 L67.30068,54.91829 Z M42.09126,49.03863 L65.23538,53.49402 L52.92617,60.60259 C52.92419,60.60358 52.92249,60.60472 52.92051,60.60585 L52.9113,60.61109 L26.6618,75.770417 L42.09126,49.03863 Z M24.69932,44.31848 L24.69932,44.30714 C24.69932,44.30544 24.69932,44.30374 24.69932,44.30204 L24.69932,30.0842 L40.12878,47.9052 L24.69932,74.637126 L24.69932,44.31848 Z M22.43334,29.00729 L22.43334,42.94634 L4.331019,39.46147 L22.43334,29.00729 Z M24.69932,25.08143 L24.69932,4.17306 L36.76763,18.11197 L24.69932,25.08143 Z M49.90874,30.96137 L26.76462,26.50598 L39.0887,19.38891 L39.0904,19.38777 C39.09281,19.3865 39.09521,19.38508 39.09748,19.38381 L65.33834,4.22958 L49.90874,30.96137 Z M67.30068,35.68138 L67.30068,35.69215 C67.30082,35.69413 67.30068,35.69626 67.30068,35.69838 L67.3007422,49.9158 L51.87136,32.09466 L67.3007422,5.36287 L67.30068,35.68138 Z M42.11279,46.73465 L26.56394,28.77553 L49.88721,33.26535 L65.43606,51.22433 L42.11279,46.73465 Z M91.99374,40.11567 C91.99473,40.10688 91.99572,40.0981 91.99643,40.08946 C91.99728,40.07827 91.99771,40.06722 91.99827,40.05617 C91.99912,40.03988 91.99941,40.02359 91.99955,40.0073 C91.99969,39.99724 92.00011,39.98732 91.99997,39.97741 C91.99969,39.96607 91.99884,39.95488 91.99827,39.94369 C91.99756,39.9291 91.99643,39.91465 91.99516,39.9002 C91.99416,39.88901 91.99374,39.87768 91.99247,39.86663 C91.99119,39.85515 91.98878,39.84382 91.98723,39.83234 C91.98524,39.81931 91.98298,39.80628 91.98071,39.79339 C91.97844,39.78135 91.9766,39.7693 91.97405,39.75755 C91.97165,39.7465 91.96853,39.73559 91.9657,39.72468 C91.96244,39.71193 91.9589,39.69918 91.95522,39.68643 C91.95196,39.67439 91.94885,39.66221 91.94502,39.65045 C91.94176,39.64068 91.93794,39.6309 91.9344,39.62113 C91.92958,39.60767 91.92449,39.59435 91.91925,39.58104 C91.91457,39.56928 91.91018,39.55738 91.90494,39.54576 C91.9014,39.53755 91.89744,39.52933 91.89347,39.52111 C91.88696,39.50695 91.87987,39.49306 91.87265,39.47904 C91.8667,39.46742 91.86076,39.45595 91.85438,39.44476 C91.85226,39.44093 91.8507,39.43711 91.84858,39.43328 L69.41498,0.56665 C69.41285,0.56325 69.41045,0.56013 69.40846,0.55673 C69.40082,0.54384 69.39289,0.53137 69.38495,0.51891 C69.37716,0.50701 69.36923,0.49525 69.3613,0.48377 C69.3562,0.47641 69.35125,0.46918 69.34601,0.46196 C69.33765,0.45048 69.32859,0.43929 69.31967,0.4281 C69.31159,0.41804 69.30352,0.40798 69.29502,0.39821 C69.28794,0.38999 69.28129,0.38164 69.2742,0.3737 C69.26557,0.36407 69.25636,0.35486 69.2473,0.34551 C69.23866,0.33659 69.22988,0.32795 69.22095,0.3193 C69.21189,0.31052 69.20311,0.30146 69.19362,0.2931 C69.18555,0.28573 69.17677,0.27879 69.16841,0.27156 C69.1585,0.26307 69.14858,0.25499 69.13839,0.24692 C69.12734,0.23813 69.11658,0.22935 69.10539,0.22113 C69.09788,0.21575 69.09052,0.21065 69.08301,0.20541 C69.0714,0.19733 69.0595,0.1894 69.04761,0.18175 C69.03529,0.17382 69.02296,0.16589 69.0105,0.15852 C69.00696,0.15639 69.0037,0.15399 69.00016,0.15186 C68.99676,0.14988 68.99308,0.14832 68.98954,0.14648 C68.97651,0.13911 68.96334,0.13231 68.95003,0.12537 C68.93771,0.11914 68.92539,0.1129 68.91264,0.1071 C68.90443,0.10327 68.89635,0.09916 68.888,0.09548 C68.87497,0.08981 68.86151,0.08471 68.8482,0.07947 C68.83659,0.0748 68.82469,0.07041 68.81279,0.06616 C68.80231,0.06233 68.79198,0.05836 68.7815,0.05496 C68.76917,0.051 68.75671,0.04774 68.74425,0.0442 C68.73264,0.04094 68.72088,0.03782 68.70927,0.03485 C68.69652,0.03173 68.68406,0.02819 68.67145,0.0255 C68.66083,0.02323 68.64993,0.02153 68.63931,0.01955 C68.62656,0.01728 68.6141,0.01516 68.60149,0.01332 C68.58733,0.01119 68.57303,0.00892 68.55886,0.00737 C68.54994,0.00637 68.54116,0.00581 68.53224,0.0051 C68.51822,0.00382 68.5042,0.00297 68.49003,0.00227 C68.47531,0.00142 68.46044,0.00085 68.44571,0.00071 C68.4416,0.00057 68.43763,0 68.43367,0 L23.56633,0 C23.56208,0 23.55783,0.00057 23.55359,0.00071 C23.54056,0.00085 23.52753,0.00156 23.5145,0.00212 C23.49892,0.00283 23.48334,0.00368 23.46776,0.0051 C23.45884,0.00581 23.44992,0.00637 23.44099,0.00737 C23.42825,0.00878 23.4155,0.01091 23.40276,0.01275 C23.38859,0.01487 23.37472,0.017 23.36084,0.01955 C23.35064,0.02139 23.34044,0.02295 23.33039,0.02507 C23.31792,0.02762 23.30574,0.03117 23.29328,0.03428 C23.28068,0.0374 23.26807,0.04066 23.25575,0.0442 C23.24485,0.04731 23.2338,0.05001 23.22318,0.05326 C23.21128,0.05709 23.19967,0.06176 23.18806,0.06587 C23.17588,0.07026 23.16384,0.07466 23.1518,0.07947 C23.14104,0.08372 23.12999,0.08741 23.11951,0.09194 C23.10889,0.09647 23.09869,0.10185 23.08821,0.10667 C23.07532,0.11262 23.06258,0.119 23.04983,0.12551 C23.03992,0.13061 23.02958,0.13543 23.01981,0.14081 C23.01088,0.14563 23.00225,0.15129 22.99332,0.15639 C22.97959,0.16461 22.96599,0.17297 22.95239,0.18175 C22.94305,0.18784 22.9337,0.19365 22.92449,0.19988 C22.91713,0.20498 22.91005,0.21037 22.90268,0.21561 C22.8888,0.22567 22.87521,0.23615 22.86161,0.24692 C22.85255,0.25414 22.84363,0.26122 22.83485,0.26873 C22.83145,0.27142 22.82791,0.27383 22.82465,0.27666 C22.82125,0.27964 22.81842,0.2829 22.81502,0.28587 C22.80284,0.29678 22.7908,0.30797 22.77905,0.31945 C22.77041,0.3278 22.76191,0.33616 22.75355,0.3448 C22.74619,0.35231 22.73897,0.35996 22.73174,0.36761 C22.72254,0.37767 22.71376,0.38787 22.70498,0.39835 C22.6969,0.4077 22.68897,0.41733 22.68104,0.42711 C22.67283,0.43745 22.66476,0.44779 22.65683,0.45842 C22.65074,0.46663 22.64479,0.47513 22.63884,0.48377 C22.63119,0.49454 22.62383,0.50545 22.61675,0.5165 C22.60825,0.52939 22.60018,0.54242 22.59224,0.5556 C22.58998,0.55942 22.58729,0.56282 22.58516,0.56665 L0.151424498,39.43328 C0.149441798,39.43697 0.147883898,39.44065 0.145901198,39.44419 C0.138111898,39.45822 0.130605798,39.47224 0.123382998,39.48641 C0.117576498,39.49802 0.111911498,39.5095 0.106529798,39.52111 C0.102139498,39.53046 0.097749198,39.53981 0.093642098,39.5493 C0.088401998,39.56163 0.083303598,39.57395 0.078488398,39.58656 C0.073956398,39.59804 0.069707698,39.60951 0.065600598,39.62113 C0.061068698,39.63402 0.056536698,39.64691 0.052429598,39.6598 C0.049313898,39.67 0.046339798,39.68006 0.043507298,39.69026 C0.040249998,39.70173 0.037275898,39.71306 0.034443398,39.72468 C0.030336298,39.74083 0.026512498,39.75684 0.023255198,39.77313 C0.022263798,39.77738 0.020847598,39.78149 0.020139398,39.78588 C0.019289698,39.79013 0.019006498,39.79438 0.018298298,39.79863 C0.016173998,39.80982 0.014616098,39.82115 0.012916598,39.83234 C0.010225798,39.84963 0.00810139796,39.86691 0.00626029796,39.88433 C0.00541059796,39.89312 0.00427759796,39.90176 0.00356949796,39.91054 C0.00271979796,39.92159 0.00243649796,39.93264 0.00186999796,39.94369 C0.00102029796,39.96012 0.000453797959,39.97627 0.000312097959,39.99256 C0.000312097959,40.00262 -0.000112702041,40.01268 2.88979592e-05,40.02259 C0.000170497959,40.03379 0.00130349796,40.04498 0.00186999796,40.05617 C0.00257809796,40.0709 0.00342789796,40.08521 0.00484409796,40.0998 C0.00583549796,40.11099 0.00626029796,40.12218 0.00753499796,40.13337 C0.00895119796,40.14471 0.011217198,40.15618 0.012916598,40.16751 C0.014757798,40.18069 0.017023698,40.19358 0.019431298,40.20661 C0.021697298,40.21851 0.023396798,40.23055 0.025945998,40.24245 C0.028353598,40.2535 0.031610998,40.26427 0.034443398,40.27532 C0.037559098,40.28807 0.041099698,40.30082 0.044640298,40.31343 C0.048180898,40.32547 0.051154998,40.33765 0.055120498,40.34955 C0.058236198,40.35932 0.062059998,40.36896 0.065600598,40.37873 C0.070415798,40.39219 0.075514298,40.40565 0.080895998,40.41896 C0.085569498,40.43072 0.089959898,40.44262 0.095058298,40.45424 C0.098598898,40.46231 0.102705998,40.47053 0.106529798,40.47874 C0.113044498,40.49291 0.120267298,40.50694 0.127348498,40.52082 C0.133296698,40.53243 0.139244898,40.54391 0.145617898,40.55524 C0.147742298,40.55892 0.149300098,40.56275 0.151424498,40.56657 L22.58516,79.4332129 C22.58672,79.4360461 22.58885,79.4384543 22.59055,79.4412876 C22.59833,79.4546037 22.60669,79.4677782 22.61519,79.4809527 C22.62411,79.4948356 22.63346,79.5082934 22.64295,79.5217512 C22.65159,79.5340758 22.65994,79.5464003 22.66915,79.5584415 C22.67283,79.563258 22.67708,79.5675078 22.68076,79.5723243 C22.68997,79.5839406 22.6996,79.5952735 22.70923,79.6064647 C22.72339,79.6227558 22.73783,79.6387635 22.75285,79.6544879 C22.75794,79.6595877 22.76262,79.6651125 22.76772,79.6702123 C22.77437,79.6768704 22.7816,79.6828202 22.78854,79.6894783 C22.8027,79.7025111 22.81686,79.7156856 22.83159,79.7282935 C22.84363,79.7384931 22.85581,79.7482677 22.86813,79.7579007 C22.87691,79.7647005 22.88526,79.7719252 22.89404,79.7784416 C22.90169,79.7839664 22.90934,79.7892079 22.91699,79.7944494 C22.93554,79.8074822 22.95466,79.8193818 22.97378,79.8312813 C22.9827,79.8366644 22.99077,79.8428975 22.99984,79.8479974 C23.00083,79.848564 23.00182,79.848989 23.00281,79.8495556 C23.00706,79.8518222 23.01131,79.8542305 23.01556,79.856497 C23.05365,79.8777462 23.09288,79.8968705 23.13339,79.9137282 C23.13509,79.9144365 23.13693,79.9152865 23.13877,79.9159948 C23.14359,79.9179781 23.14854,79.919253 23.15322,79.920953 C23.18777,79.9345524 23.22318,79.946452 23.25915,79.95651 C23.27317,79.9604765 23.28705,79.9638764 23.30107,79.9674179 C23.33039,79.9743593 23.36027,79.9800257 23.39044,79.9848422 C23.40559,79.9872505 23.4206,79.9900837 23.43575,79.991642 C23.47201,79.9960335 23.50883,79.9981584 23.54608,79.9988667 C23.55245,79.9988667 23.55897,80 23.56534,80 L23.56633,80 L23.56746,80 C23.56846,80 23.56959,79.9998583 23.57072,79.9998583 L68.42942,79.9998583 C68.43055,79.9998583 68.43154,80 68.43268,80 C68.43494,80 68.43693,79.999575 68.43919,79.999575 C68.47332,79.9994334 68.5076,79.9975918 68.54187,79.9943335 C68.55008,79.9936252 68.5583,79.9923503 68.56651,79.9913587 C68.576,79.990367 68.58535,79.9888088 68.59498,79.9873921 C68.61254,79.9849839 68.62996,79.982434 68.64738,79.9791758 C68.66168,79.9763425 68.67584,79.9729427 68.69029,79.9695428 C68.70049,79.9672762 68.71083,79.9654346 68.72102,79.9627431 C68.72131,79.9626014 68.72173,79.9626014 68.72201,79.9624597 C68.73164,79.9600515 68.74113,79.9567933 68.75048,79.9541017 C68.76521,79.9498519 68.77965,79.9450354 68.7941,79.9402189 C68.81279,79.9339858 68.83121,79.9273277 68.84962,79.920103 C68.85429,79.9182614 68.85925,79.9167031 68.86392,79.9147199 C68.87383,79.9106117 68.88361,79.9062202 68.89338,79.9018287 C68.91179,79.8936123 68.92992,79.8848293 68.94805,79.8754797 C68.96023,79.8692466 68.97255,79.8632968 68.98458,79.856497 C68.98869,79.8542305 68.9928,79.8519639 68.99719,79.8495556 C69.01135,79.8413393 69.02523,79.8321313 69.03925,79.8232066 C69.05271,79.8147069 69.0663,79.8063489 69.07947,79.7971409 C69.08754,79.7914745 69.09576,79.7855247 69.10397,79.7795749 C69.11346,79.7727752 69.12253,79.7652671 69.13201,79.7579007 C69.14292,79.7492594 69.15397,79.7407597 69.16459,79.7316934 C69.16827,79.7288601 69.17195,79.7261686 69.17535,79.7231937 C69.1847,79.7152606 69.19249,79.7064776 69.20155,79.6982613 C69.20368,79.696278 69.20566,79.6945781 69.20778,79.6925948 C69.21571,79.6849451 69.22449,79.6781454 69.23243,79.6702123 C69.23738,79.6653958 69.24177,79.6600127 69.24645,79.6550546 C69.25948,79.6418801 69.27137,79.6279972 69.28355,79.6142561 C69.29559,79.6006566 69.30763,79.5870571 69.31896,79.5727493 C69.31938,79.5721827 69.31981,79.5718993 69.32023,79.5713327 C69.32321,79.5673662 69.32675,79.5639663 69.32972,79.5601414 C69.3385,79.5488085 69.34601,79.5370506 69.35422,79.5255761 C69.36414,79.5116933 69.37405,79.4978104 69.3834,79.4835026 C69.39232,79.4697615 69.40082,79.4558787 69.40917,79.4419959 C69.41073,79.4388793 69.41314,79.4363294 69.41498,79.4332129 L91.83654,40.5874 C91.83725,40.58627 91.83795,40.58513 91.83852,40.58386 L91.84858,40.56657 C91.85155,40.56162 91.85353,40.55623 91.85637,40.55128 C91.86996,40.52691 91.88271,40.50212 91.8946,40.47648 C91.89984,40.46529 91.9048,40.45395 91.90962,40.44248 C91.91542,40.42874 91.92151,40.41514 91.92675,40.40111 C91.92958,40.39375 91.93171,40.3861 91.9344,40.37873 C91.93964,40.36414 91.94446,40.34955 91.94913,40.33482 C91.95239,40.32405 91.95578,40.31328 91.95876,40.30238 C91.96131,40.29331 91.96343,40.28439 91.9657,40.27532 C91.96966,40.25959 91.97335,40.24387 91.97646,40.228 C91.97759,40.22333 91.97901,40.21894 91.98,40.21398 C91.98085,40.20973 91.98099,40.20548 91.9817,40.20123 C91.98368,40.19004 91.98538,40.17871 91.98723,40.16751 C91.98977,40.15023 91.99204,40.13295 91.99374,40.11567 L91.99374,40.11567 Z" id="path-1"></path>
    </defs>
    <g id="Page-1" stroke="none" stroke-width="1" fill="none" fill-rule="evenodd">
        <g id="caffeine_logo_black" transform="translate(-1.000000, -1.000000)">
            <g id="Black" transform="translate(1.000000, 1.000000)">
                <mask id="mask-2" fill="white">
                    <use xlink:href="#path-1"></use>
                </mask>
                <use id="path-1" fill="#000000" xlink:href="#path-1"></use>
            </g>
        </g>
    </g>
</svg>