<svg xmlns="http://www.w3.org/2000/svg" xmlns:xlink="http://www.w3.org/1999/xlink" version="1.1" x="0px" y="0px" viewBox="185.25 184.25 100 100" enable-background="new 185.25 184.25 100 100" xml:space="preserve"><g><g><g><path d="M204.608,244.706l11.525,11.525c2.041,0.365,4.142,0.556,6.288,0.556c1.898,0,3.761-0.151,5.579-0.438l-22.379-22.38     c0.704-2.995,1.747-5.863,3.092-8.559l28.263,28.263c2.623-1.181,5.076-2.672,7.314-4.426l-30.99-30.99     c1.723-2.143,3.667-4.102,5.796-5.847l31.043,31.043c1.776-2.22,3.29-4.658,4.497-7.268l-28.425-28.426     c2.683-1.367,5.545-2.44,8.546-3.17l22.646,22.646c0.324-1.926,0.495-3.905,0.495-5.923c0-1.985-0.166-3.93-0.479-5.826     l-12.002-12.002c2.857,0.088,5.641,0.482,8.321,1.148c-5.969-11.183-17.752-18.795-31.315-18.795     c-19.592,0-35.475,15.883-35.475,35.475c0,13.563,7.612,25.346,18.796,31.315C205.11,250.078,204.721,247.429,204.608,244.706z"></path></g><path d="M243.651,282.651c-0.88-0.002-1.77-0.034-2.644-0.095l0.587-8.494c1.239,0.086,2.503,0.097,3.757,0.035    c1.263-0.063,2.531-0.203,3.768-0.416l1.442,8.392c-1.572,0.27-3.182,0.448-4.785,0.528    C245.069,282.636,244.354,282.653,243.651,282.651z"></path><path d="M231.594,280.743c-3.043-0.982-5.969-2.335-8.695-4.023l4.482-7.24c2.142,1.326,4.439,2.389,6.828,3.159L231.594,280.743z    "></path><path d="M259.738,279.319l-3.419-7.798c2.297-1.007,4.474-2.295,6.47-3.83l5.189,6.751    C265.437,276.395,262.665,278.036,259.738,279.319z"></path><path d="M215.423,270.741c-2.244-2.286-4.208-4.839-5.837-7.587l7.325-4.341c1.28,2.16,2.824,4.166,4.588,5.964L215.423,270.741z"></path><path d="M274.813,267.741l-6.647-5.322c1.575-1.967,2.909-4.12,3.965-6.398l7.725,3.58    C278.512,262.501,276.815,265.239,274.813,267.741z"></path><path d="M282.803,250.48l-8.36-1.614c0.369-1.911,0.559-3.874,0.564-5.833c0.001-0.555-0.012-1.119-0.04-1.675l-0.004-0.072    l8.504-0.425l0.004,0.073c0.035,0.703,0.052,1.418,0.05,2.122C283.515,245.547,283.273,248.046,282.803,250.48z"></path><path d="M273.677,233.877c-0.725-2.404-1.744-4.719-3.028-6.881l7.32-4.349c1.637,2.755,2.935,5.706,3.86,8.771L273.677,233.877z"></path><path d="M266.055,221.036c-1.766-1.795-3.746-3.376-5.885-4.697l4.475-7.244c2.72,1.68,5.237,3.689,7.481,5.971L266.055,221.036z"></path></g></g></svg>