<svg xmlns="http://www.w3.org/2000/svg" xmlns:xlink="http://www.w3.org/1999/xlink" viewBox="0 0 60 60" version="1.1" x="0px" y="0px"><title>Desktop Publishing - Outline - 034 - Fit to object</title><desc>Created with Sketch.</desc><g stroke="none" stroke-width="1" fill="none" fill-rule="evenodd"><g fill-rule="nonzero" fill="#000000"><path d="M58,0 L56,0 C54.8958875,0.00110245966 54.0011025,0.895887477 54,2 L6,2 C5.99889754,0.895887477 5.10411252,0.00110245966 4,0 L2,0 C0.895887477,0.00110245966 0.00110245966,0.895887477 2.2226665e-16,2 L2.2226665e-16,4 C0.00110245966,5.10411252 0.895887477,5.99889754 2,6 L2,54 C0.895887477,54.0011025 0.00110245966,54.8958875 0,56 L0,58 C0.00110245966,59.1041125 0.895887477,59.9988975 2,60 L4,60 C5.10411252,59.9988975 5.99889754,59.1041125 6,58 L54,58 C54.0011025,59.1041125 54.8958875,59.9988975 56,60 L58,60 C59.1041125,59.9988975 59.9988975,59.1041125 60,58 L60,56 C59.9988975,54.8958875 59.1041125,54.0011025 58,54 L58,6 C59.1041125,5.99889754 59.9988975,5.10411252 60,4 L60,2 C59.9988975,0.895887477 59.1041125,0.00110245966 58,0 Z M24.91406,56 L41,39.91406 L41,46.08594 L31.08594,56 L24.91406,56 Z M15.91406,56 L41,30.91406 L41,37.08594 L22.08594,56 L15.91406,56 Z M6.91406,56 L41,21.91406 L41,28.08594 L13.08594,56 L6.91406,56 Z M41,48.91406 L41,56 L33.91406,56 L41,48.91406 Z M41,10.08594 L4,47.08594 L4,40.91406 L40.91406,4 L41,4 L41,10.08594 Z M4,13.91406 L13.91406,4 L20.08594,4 L4,20.08594 L4,13.91406 Z M4,22.91406 L22.91406,4 L29.08594,4 L4,29.08594 L4,22.91406 Z M4,31.91406 L31.91406,4 L38.08594,4 L4,38.08594 L4,31.91406 Z M2,2 L4,1.99854 L4,4 L2,4 L2,2 Z M6,4 L11.08594,4 L4,11.08594 L4,6 C5.10411252,5.99889754 5.99889754,5.10411252 6,4 Z M4,49.91406 L41,12.91406 L41,19.08594 L5.45251,54.63342 C5.0769441,54.2302504 4.55099428,54.0008908 4,54 L4,49.91406 Z M4,58 L2,58 L2,56 L2.9964,55.99927 L3,56 L3.00366,55.99927 L4,55.99854 L4,58 Z M58,58 L56,58 L56,56 L56.9964,55.99927 L57,56 L57.00366,55.99927 L58,55.99854 L58,58 Z M56,54 C54.8958875,54.0011025 54.0011025,54.8958875 54,56 L43,56 L43,4 L54,4 C54.0011025,5.10411252 54.8958875,5.99889754 56,6 L56,54 Z M58,4 L56,4 L56,2 L58,1.99854 L58,4 Z"></path></g></g></svg>