<svg xmlns:dc="http://purl.org/dc/elements/1.1/" xmlns:cc="http://creativecommons.org/ns#" xmlns:rdf="http://www.w3.org/1999/02/22-rdf-syntax-ns#" xmlns:svg="http://www.w3.org/2000/svg" xmlns="http://www.w3.org/2000/svg" xmlns:sodipodi="http://sodipodi.sourceforge.net/DTD/sodipodi-0.dtd" xmlns:inkscape="http://www.inkscape.org/namespaces/inkscape" viewBox="0 0 16 16" version="1.1" x="0px" y="0px"><g transform="translate(0,-1036.3622)"><g transform="translate(0,0.0198085)"><g transform="translate(1100.5659,-21.019708)"><g transform="translate(-116.0644,4.9999995)"><path style="color:#000000;font-style:normal;font-variant:normal;font-weight:normal;font-stretch:normal;font-size:medium;line-height:normal;font-family:sans-serif;text-indent:0;text-align:start;text-decoration:none;text-decoration-line:none;text-decoration-style:solid;text-decoration-color:#000000;letter-spacing:normal;word-spacing:normal;text-transform:none;direction:ltr;block-progression:tb;writing-mode:lr-tb;baseline-shift:baseline;text-anchor:start;white-space:normal;clip-rule:nonzero;display:inline;overflow:visible;visibility:visible;opacity:1;isolation:auto;mix-blend-mode:normal;color-interpolation:sRGB;color-interpolation-filters:linearRGB;solid-color:#000000;solid-opacity:1;fill:#000000;fill-opacity:1;fill-rule:evenodd;stroke:none;stroke-width:0.99999994px;stroke-linecap:butt;stroke-linejoin:miter;stroke-miterlimit:4;stroke-dasharray:none;stroke-dashoffset:0;stroke-opacity:1;color-rendering:auto;image-rendering:auto;shape-rendering:auto;text-rendering:auto;enable-background:accumulate" d="M 15 1 L -0.005859375 6.0351562 L 0.15429688 7.0097656 L 15 7.0097656 L 15 1 z M 14 2.390625 L 14 6.0097656 L 3.2167969 6.0097656 L 14 2.390625 z M -0.001953125 8.0097656 L -0.001953125 9.0097656 L 0.99804688 9.0097656 L 0.99804688 8.0097656 L -0.001953125 8.0097656 z M 1.9980469 8.0097656 L 1.9980469 9.0097656 L 3.9980469 9.0097656 L 3.9980469 8.0097656 L 1.9980469 8.0097656 z M 4.9980469 8.0097656 L 4.9980469 9.0097656 L 6.9980469 9.0097656 L 6.9980469 8.0097656 L 4.9980469 8.0097656 z M 7.9980469 8.0097656 L 7.9980469 9.0097656 L 9.9980469 9.0097656 L 9.9980469 8.0097656 L 7.9980469 8.0097656 z M 10.998047 8.0097656 L 10.998047 9.0097656 L 12.998047 9.0097656 L 12.998047 8.0097656 L 10.998047 8.0097656 z M 13.998047 8.0097656 L 13.998047 9.0097656 L 14.998047 9.0097656 L 14.998047 8.0097656 L 13.998047 8.0097656 z M 0.15429688 10.009766 L -0.005859375 10.984375 L 15 16.017578 L 15 10.009766 L 0.15429688 10.009766 z M 3.2167969 11.009766 L 14 11.009766 L 14 14.628906 L 3.2167969 11.009766 z " transform="translate(-984.5015,1052.3621)"></path></g></g></g></g></svg>