<svg xmlns:dc="http://purl.org/dc/elements/1.1/" xmlns:cc="http://creativecommons.org/ns#" xmlns:rdf="http://www.w3.org/1999/02/22-rdf-syntax-ns#" xmlns:svg="http://www.w3.org/2000/svg" xmlns="http://www.w3.org/2000/svg" xmlns:sodipodi="http://sodipodi.sourceforge.net/DTD/sodipodi-0.dtd" xmlns:inkscape="http://www.inkscape.org/namespaces/inkscape" viewBox="0 0 16 16" version="1.1" x="0px" y="0px"><g transform="translate(0,-1036.3622)"><g transform="translate(0,0.0198085)"><g transform="translate(1100.5659,-21.019708)"><g transform="translate(-116.0644,4.9999995)"><path style="color:#000000;font-style:normal;font-variant:normal;font-weight:normal;font-stretch:normal;font-size:medium;line-height:normal;font-family:sans-serif;text-indent:0;text-align:start;text-decoration:none;text-decoration-line:none;text-decoration-style:solid;text-decoration-color:#000000;letter-spacing:normal;word-spacing:normal;text-transform:none;direction:ltr;block-progression:tb;writing-mode:lr-tb;baseline-shift:baseline;text-anchor:start;white-space:normal;clip-rule:nonzero;display:inline;overflow:visible;visibility:visible;opacity:1;isolation:auto;mix-blend-mode:normal;color-interpolation:sRGB;color-interpolation-filters:linearRGB;solid-color:#000000;solid-opacity:1;fill:#000000;fill-opacity:1;fill-rule:evenodd;stroke:none;stroke-width:0.99999994px;stroke-linecap:butt;stroke-linejoin:miter;stroke-miterlimit:4;stroke-dasharray:none;stroke-dashoffset:0;stroke-opacity:1;color-rendering:auto;image-rendering:auto;shape-rendering:auto;text-rendering:auto;enable-background:accumulate" d="M 6.0351562 1 L 1 16.005859 L 7.0097656 16.005859 L 7.0097656 1.1601562 L 6.0351562 1 z M 10.982422 1 L 10.009766 1.1601562 L 10.009766 16.005859 L 16.017578 16.005859 L 10.982422 1 z M 8.0097656 1.0039062 L 8.0097656 2.0039062 L 9.0097656 2.0039062 L 9.0097656 1.0039062 L 8.0097656 1.0039062 z M 8.0097656 3.0039062 L 8.0097656 5.0039062 L 9.0097656 5.0039062 L 9.0097656 3.0039062 L 8.0097656 3.0039062 z M 6.0097656 4.21875 L 6.0097656 15.005859 L 2.390625 15.005859 L 6.0097656 4.21875 z M 11.009766 4.2226562 L 14.628906 15.005859 L 11.009766 15.005859 L 11.009766 4.2226562 z M 8.0097656 6.0039062 L 8.0097656 8.0039062 L 9.0097656 8.0039062 L 9.0097656 6.0039062 L 8.0097656 6.0039062 z M 8.0097656 9.0039062 L 8.0097656 11.003906 L 9.0097656 11.003906 L 9.0097656 9.0039062 L 8.0097656 9.0039062 z M 8.0097656 12.003906 L 8.0097656 14.003906 L 9.0097656 14.003906 L 9.0097656 12.003906 L 8.0097656 12.003906 z M 8.0097656 15.003906 L 8.0097656 16.003906 L 9.0097656 16.003906 L 9.0097656 15.003906 L 8.0097656 15.003906 z " transform="translate(-984.5015,1052.3621)"></path></g></g></g></g></svg>