<svg viewBox="0 0 16 16" xmlns="http://www.w3.org/2000/svg"><path d="m14.822 2.7361a.50028.43099 0 1 0 -.707-.60995l-2.11 1.8178c-1.115-.66595-2.44-1.1458-3.945-1.1458-5.06 0-8.06 5.1691-8.06 5.1691s1.162 2.0013 3.258 3.5132l-2.064 1.779a.5.43076 0 1 0 .707.60909zm-9.962 7.3651 1.432-1.2345a1.999 1.7222 0 0 1 -.292-.90028c0-.95628.89-1.723 2-1.723.384 0 .741.09132 1.045.25156l1.433-1.2345a3.98 3.4288 0 0 0 -2.478-.74004c-2.2 0-4 1.5507-4 3.446 0 .8081.321 1.549.859 2.1348zm7.005-3.0273 1.993-1.7161a14.873 12.813 0 0 1 2.142 2.6087s-3 5.1691-7.94 5.1691a6.609 5.6937 0 0 1 -2.661-.49106l1.565-1.3491c.33.07668.678.11717 1.036.11717 2.22 0 4-1.5335 4-3.446 0-.30842-.047-.60737-.136-.89253zm-2.527 2.1762.152-.13009a1.996 1.7196 0 0 1 -.152.13009z" fill="#807f80" fill-rule="evenodd" stroke-width=".92818"/></svg>