<?xml version="1.0" encoding="UTF-8"?>
<svg height="16px" viewBox="0 0 16 16" width="16px" xmlns="http://www.w3.org/2000/svg">
    <g fill="#000000">
        <path d="m 3 1 h 3 c 0.550781 0 1 0.449219 1 1 v 12 c 0 0.550781 -0.449219 1 -1 1 h -3 c -0.550781 0 -1 -0.449219 -1 -1 v -12 c 0 -0.550781 0.449219 -1 1 -1 z m 0 0"/>
        <path d="m 10 1 h 3 c 0.550781 0 1 0.449219 1 1 v 12 c 0 0.550781 -0.449219 1 -1 1 h -3 c -0.550781 0 -1 -0.449219 -1 -1 v -12 c 0 -0.550781 0.449219 -1 1 -1 z m 0 0"/>
    </g>
</svg>
