<svg clip-rule="evenodd" fill-rule="evenodd" height="40" stroke-linejoin="round" stroke-miterlimit="1.41421" viewBox="0 0 125 40" width="125" xmlns="http://www.w3.org/2000/svg"><path d="m128 80h32v32h-32zm96-8v152c0 8.8-7.2 16-16 16h-160c-8.8 0-16-7.2-16-16v-192c0-8.8 7.2-16 16-16h120zm-16 8-48-48h-112v176l48-80 32 64 32-32 48 48z" transform="matrix(.11570877444 0 0 .11570877444 -1.05981732 5.55958012)"/><path d="m240 48h-128c0-8.8-7.2-16-16-16h-64c-8.8 0-16 7.2-16 16-8.8 0-16 7.2-16 16v144c0 8.8 7.2 16 16 16h224c8.8 0 16-7.2 16-16v-144c0-8.8-7.2-16-16-16zm-144 32h-64v-16h64zm72 112c-31.04 0-56-24.96-56-56s24.96-56 56-56 56 24.96 56 56-24.96 56-56 56zm40-56c0 22.08-18.08 40-40 40s-40-18.08-40-40 18.08-40 40-40 40 18.08 40 40z" transform="matrix(.11624432484 0 0 .11624432484 92.74115904 5.4908782)"/><path d="m128 16c-61.76 0-112 50.24-112 112s50.24 112 112 112c7.68 0 15.04-.8 22.08-2.24-2.72-1.28-3.2-11.68-.32-17.44 3.04-6.56 12.96-23.2 3.2-28.8s-7.04-8-12.96-14.56-3.52-7.52-4-9.28c-1.28-5.44 5.76-14.24 6.24-15.04.32-.96.32-4.32 0-5.28 0-1.28-4.32-3.52-5.44-3.68-.96 0-1.76 1.76-3.2 2.08s-8-4-9.44-5.28-2.24-3.68-4.32-5.44c-2.08-2.08-2.24-.48-5.28-1.76s-12.8-4.96-20.48-7.68c-7.68-3.04-8.32-7.52-8.32-10.56-.32-3.2-4.8-7.52-6.72-10.72-2.24-3.2-2.56-7.52-3.2-6.56s4 12.48 3.2 12.96c-.8.32-2.56-3.2-4.8-6.08-2.24-3.04 2.24-1.44-4.8-15.2s2.24-20.8 2.72-28 6.08 2.72 3.04-2.08 0-14.24-2.24-17.76c-2.08-3.52-14.08 4-14.08 4 .32-3.52 11.04-9.28 18.56-14.72s12.48-.96 18.56.8c6.24 2.08 6.56 1.44 4.48-.8-2.08-2.08.96-2.72 5.76-2.08 4.48.8 6.08 6.56 13.28 5.76 7.52-.48.8 1.44 1.76 3.52s-.96 1.76-6.08 4.8c-4.8 3.2.32 3.52 8.8 9.76s6.08-4 4.96-8.8 6.24-.96 6.24-.96c5.28 3.52 4.32.32 8 1.28s14.56 10.24 14.56 10.24c-13.28 7.04-4.96 7.68-2.72 9.44s-4.48 4.8-4.48 4.8c-2.72-2.72-3.04.32-4.8 1.28s-.32 3.52-.32 3.52c-8.96 1.44-7.04 11.04-6.72 13.28 0 2.24-6.08 5.76-7.52 9.28-1.44 3.2 4 10.24.96 10.56-3.04.48-5.44-10.56-20.96-6.56-4.8 1.28-15.04 6.56-9.44 17.28 5.76 11.04 14.72-3.04 17.76-1.44s-.96 8.48-.32 8.8 8.48.32 8.96 9.76 12.32 8.48 14.72 8.8c2.72 0 11.2-7.04 12.32-7.2.96-.48 6.08-4.48 16.48 1.44 10.56 5.76 15.68 4.96 19.2 7.52s1.28 7.52 4.48 9.28 16.96-.48 20.48 4.96-14.08 33.44-19.52 36.48-7.68 10.24-13.44 14.72-12.96 10.24-20.32 14.56c-6.56 3.68-7.52 10.56-10.56 12.8 50.24-11.2 87.68-56 87.68-109.44 0-61.76-50.24-112-112-112zm26.24 104.96c-1.44.48-4.48 3.52-12.48-1.28-7.68-4.8-12.96-3.68-13.76-4.48 0 0-.8-1.76 2.72-2.24 7.04-.8 15.68 6.56 17.76 6.56s3.04-2.08 6.56-.8.8 2.08-.8 2.24zm-36.8-93.76c-.8-.48.48-1.28 1.44-2.24.48-.48.32-1.76.8-2.24 1.76-1.76 9.76-4 8.32.48-1.76 4.32-9.28 4.8-10.56 4zm19.68 14.24c-3.04-.32-9.28-.8-8.32-2.24 4.8-4.48-1.44-6.08-5.44-6.08-4-.32-5.44-2.56-3.52-3.04s9.76.32 11.2 1.28c1.28.96 8.32 4 8.8 6.08.32 2.08 0 4-2.72 4zm23.52-.8c-2.24 1.44-13.28-6.56-15.2-8.32-8.96-7.68-14.24-4.96-16-6.56s-1.28-3.04 1.76-5.44 11.04.96 16 1.44c4.8.48 10.56 4.32 10.56 8.8.32 4 5.28 8 3.04 10.08z" transform="matrix(.11570877444 0 0 .11570877444 61.05036984 5.55958012)"/><path d="m240 32h-224c-8.8 0-16 7.2-16 16v144c0 8.8 7.2 16 16 16h85.44c-4 9.76-13.76 22.24-37.44 32h128c-23.68-9.76-33.44-22.24-37.44-32h85.44c8.8 0 16-7.2 16-16v-144c0-8.8-7.2-16-16-16zm0 144h-224v-128h224z" transform="matrix(.12374351808 0 0 .12374351808 28.42439604 3.54098788)"/></svg>