<?xml version="1.0" encoding="UTF-8" standalone="no"?><svg height="16px" viewBox="0 0 16 16" width="16px" version="1.1" id="svg138" xmlns="http://www.w3.org/2000/svg" xmlns:svg="http://www.w3.org/2000/svg"><defs id="defs142" /><path d="M 7.40625,1 C 6.792969,1.007812 6.171875,1.089844 5.558594,1.253906 2.285156,2.132812 0,5.109375 0,8.5 c 0,3.390625 2.285156,6.367188 5.558594,7.242188 3.273437,0.878906 6.742187,-0.558594 8.4375,-3.492188 0.277344,-0.480469 0.109375,-1.089844 -0.367188,-1.367188 C 13.152344,10.609375 12.539062,10.773438 12.261719,11.25 11.015625,13.410156 8.484375,14.457031 6.074219,13.8125 3.667969,13.167969 2,10.992188 2,8.5 2,6.003906 3.667969,3.832031 6.074219,3.1875 c 2.410156,-0.644531 4.941406,0.402344 6.1875,2.5625 0.05859,0.085938 0.125,0.164062 0.203125,0.226562 L 12.445312,5.992188 12.4375,6 15,7 14,4.6875 13.984375,4.699219 13.972656,4.710938 C 12.695312,2.53125 10.441406,1.191406 8.019531,1.019531 7.816406,1.003906 7.613281,1 7.40625,1 Z m 0,0" fill="currentColor" id="path132" /><path d="M 7.5,5 C 7.777344,5 8,5.222656 8,5.5 v 3.207031 l -2.144531,2.148438 c -0.195313,0.191406 -0.511719,0.191406 -0.707031,0 -0.195313,-0.195313 -0.195313,-0.515625 0,-0.710938 L 7,8.292969 V 5.5 C 7,5.222656 7.222656,5 7.5,5 Z m 0,0" fill="currentColor" id="path134" /><path d="m 15,2 c 0.550781,0 1,0.449219 1,1 v 4 c 0,0.550781 -0.449219,1 -1,1 H 11 C 10.449219,8 10,7.550781 10,7 10,6.449219 10.449219,6 11,6 h 3 V 3 c 0,-0.550781 0.449219,-1 1,-1 z m 0,0" fill="currentColor" id="path136" /></svg>
