<svg xmlns="http://www.w3.org/2000/svg" xmlns:xlink="http://www.w3.org/1999/xlink" version="1.1" x="0px" y="0px" viewBox="0 0 100 100" enable-background="new 0 0 100 100" xml:space="preserve"><g><path fill="#000000" d="M31.545,45.802l-7.139,6.209c0.428-7.39,3.332-14.64,8.983-20.291c6.111-6.112,14.084-9.148,22.103-9.154   c2.253,0,4.078-1.827,4.078-4.08c0-2.254-1.825-4.08-4.078-4.08v-0.001C45.414,14.4,35.299,18.258,27.618,25.949   c-6.523,6.52-10.264,14.791-11.252,23.302l-4.092-4.705c-1.477-1.7-4.057-1.88-5.758-0.401c-1.7,1.479-1.878,4.057-0.399,5.758   l11.6,13.336c0.117,0.135,0.276,0.198,0.407,0.314c0.213,0.19,0.42,0.369,0.664,0.511c0.223,0.128,0.452,0.209,0.691,0.291   c0.255,0.09,0.505,0.171,0.778,0.209c0.088,0.012,0.167,0.062,0.255,0.068c0.173,0.013,0.343-0.053,0.518-0.064   c0.189-0.01,0.369,0.041,0.561,0.003c0.09-0.018,0.159-0.079,0.247-0.103c0.231-0.061,0.441-0.17,0.659-0.274   c0.287-0.133,0.558-0.263,0.8-0.453c0.056-0.044,0.125-0.054,0.178-0.102L36.904,51.96c1.7-1.479,1.878-4.056,0.399-5.758   C35.825,44.503,33.248,44.323,31.545,45.802z"></path><path fill="#000000" d="M93.687,40.541c-0.76-0.763-1.796-1.198-2.883-1.198H52.715c-1.089,0-2.123,0.435-2.883,1.198   c-0.763,0.761-1.198,1.795-1.198,2.883v38.089c0,1.089,0.436,2.122,1.198,2.884c0.76,0.762,1.793,1.197,2.883,1.197h38.089   c1.087,0,2.123-0.435,2.883-1.197c0.763-0.762,1.198-1.795,1.198-2.884V43.424C94.885,42.336,94.449,41.302,93.687,40.541z    M86.723,77.433H56.796V47.506h29.927V77.433z"></path></g></svg>