<?xml version="1.0" encoding="UTF-8" standalone="no"?>
<svg
   xmlns:dc="http://purl.org/dc/elements/1.1/"
   xmlns:cc="http://creativecommons.org/ns#"
   xmlns:rdf="http://www.w3.org/1999/02/22-rdf-syntax-ns#"
   xmlns:svg="http://www.w3.org/2000/svg"
   xmlns="http://www.w3.org/2000/svg"
   id="svg8"
   version="1.1"
   viewBox="0 0 2.1166666 2.1166667"
   height="8"
   width="8">
  <defs
     id="defs2" />
  <metadata
     id="metadata5">
    <rdf:RDF>
      <cc:Work
         rdf:about="">
        <dc:format>image/svg+xml</dc:format>
        <dc:type
           rdf:resource="http://purl.org/dc/dcmitype/StillImage" />
        <dc:title></dc:title>
      </cc:Work>
    </rdf:RDF>
  </metadata>
  <g
     transform="translate(0,-294.88332)"
     id="layer1">
    <circle
       r="0.39687499"
       cy="295.94165"
       cx="1.0583333"
       id="path4544"
       style="fill:#7f7d7f;fill-opacity:1;stroke:none;stroke-width:0.13229167;stroke-linecap:round;stroke-linejoin:round;stroke-miterlimit:4;stroke-dasharray:none;stroke-dashoffset:0;stroke-opacity:1;paint-order:normal" />
    <path
       d="M 0.41582902,296.5497 A 0.79374999,0.79374999 0 0 1 0.13229167,295.94165 0.79374999,0.79374999 0 0 1 0.41582902,295.3336"
       id="path4546"
       style="fill:none;fill-opacity:1;stroke:#7f7d7f;stroke-width:0.15875;stroke-linecap:round;stroke-linejoin:round;stroke-miterlimit:4;stroke-dasharray:none;stroke-dashoffset:0;stroke-opacity:1;paint-order:normal" />
    <path
       transform="scale(-1,1)"
       d="m -1.7009357,296.5497 a 0.79374999,0.79374999 0 0 1 -0.2835373,-0.60805 0.79374999,0.79374999 0 0 1 0.2835373,-0.60805"
       id="path4546-1"
       style="fill:none;fill-opacity:1;stroke:#7f7d7f;stroke-width:0.15875;stroke-linecap:round;stroke-linejoin:round;stroke-miterlimit:4;stroke-dasharray:none;stroke-dashoffset:0;stroke-opacity:1;paint-order:normal" />
    <path
       d="M 0.6324488,296.41847 A 0.6224438,0.6224438 0 0 1 0.41010416,295.94165 0.6224438,0.6224438 0 0 1 0.6324488,295.46483"
       id="path4546-5"
       style="fill:none;fill-opacity:1;stroke:#7f7d7f;stroke-width:0.15875;stroke-linecap:round;stroke-linejoin:round;stroke-miterlimit:4;stroke-dasharray:none;stroke-dashoffset:0;stroke-opacity:1;paint-order:normal" />
    <path
       transform="scale(-1,1)"
       d="m -1.484242,296.41847 a 0.62244385,0.62244385 0 0 1 -0.2223447,-0.47682 0.62244385,0.62244385 0 0 1 0.2223447,-0.47682"
       id="path4546-5-4"
       style="fill:none;fill-opacity:1;stroke:#7f7d7f;stroke-width:0.15875;stroke-linecap:round;stroke-linejoin:round;stroke-miterlimit:4;stroke-dasharray:none;stroke-dashoffset:0;stroke-opacity:1;paint-order:normal" />
  </g>
</svg>
