<?xml version="1.0" encoding="utf-8"?>
<!-- Generator: Adobe Illustrator 25.2.3, SVG Export Plug-In . SVG Version: 6.00 Build 0)  -->
<svg version="1.1"
	 id="svg8" xmlns:cc="http://creativecommons.org/ns#" xmlns:dc="http://purl.org/dc/elements/1.1/" xmlns:rdf="http://www.w3.org/1999/02/22-rdf-syntax-ns#" xmlns:svg="http://www.w3.org/2000/svg"
	 xmlns="http://www.w3.org/2000/svg" xmlns:xlink="http://www.w3.org/1999/xlink" x="0px" y="0px" viewBox="0 0 8 8"
	 style="enable-background:new 0 0 8 8;" xml:space="preserve">
<style type="text/css">
	.st0{fill:#7F7D7F;}
</style>
<g>
	<path class="st0" d="M6.5,0.8L4.6,2.6C4.4,2.6,4.2,2.5,4,2.5C3.2,2.5,2.5,3.2,2.5,4c0,0.2,0.1,0.4,0.1,0.6L2.2,5.1
		C2,4.8,1.8,4.4,1.8,4c0-0.6,0.3-1.2,0.7-1.6c0.1-0.1,0.1-0.3,0-0.4C2.5,1.9,2.3,1.9,2.2,2C1.6,2.5,1.2,3.2,1.2,4
		c0,0.6,0.2,1.1,0.5,1.5L1.5,5.8C1.1,5.3,0.8,4.7,0.8,4c0-0.8,0.4-1.6,1-2.1c0.1-0.1,0.1-0.3,0-0.4c-0.1-0.1-0.3-0.1-0.4,0
		C0.6,2.1,0.2,3,0.2,4c0,0.8,0.3,1.6,0.9,2.2L0.8,6.5l0.4,0.4l5.7-5.7L6.5,0.8z"/>
	<path class="st0" d="M5.4,3.4l-2,2C3.6,5.4,3.8,5.5,4,5.5c0.8,0,1.5-0.7,1.5-1.5C5.5,3.8,5.4,3.6,5.4,3.4z"/>
	<path class="st0" d="M6.2,2.5L5.8,2.9C6,3.2,6.2,3.6,6.2,4c0,0.6-0.3,1.2-0.7,1.6C5.3,5.7,5.3,5.9,5.4,6c0.1,0.1,0.1,0.1,0.2,0.1
		c0.1,0,0.1,0,0.2-0.1c0.6-0.5,0.9-1.2,0.9-2C6.8,3.4,6.6,2.9,6.2,2.5z"/>
	<path class="st0" d="M6.9,1.8L6.5,2.2C6.9,2.7,7.2,3.3,7.2,4c0,0.8-0.4,1.6-1,2.1c-0.1,0.1-0.1,0.3,0,0.4c0.1,0.1,0.1,0.1,0.2,0.1
		c0.1,0,0.1,0,0.2-0.1C7.4,5.9,7.8,5,7.8,4C7.8,3.2,7.5,2.4,6.9,1.8z"/>
</g>
</svg>
