<svg version="1.2" xmlns="http://www.w3.org/2000/svg" viewBox="0 0 24 24" width="24" height="24">
	<style>
		.s0 { fill: #FFFFFF } 
		.s1 { opacity: .2;fill: #FFFFFF } 
	</style>
	<path id="Layer copy" class="s0" d="m12 21.5q-1.97 0-3.7-0.75-1.74-0.75-3.02-2.03-1.28-1.28-2.03-3.01-0.75-1.74-0.75-3.71 0-1.97 0.75-3.7 0.75-1.74 2.03-3.02 1.28-1.28 3.01-2.03 1.74-0.75 3.71-0.75 1.97 0 3.7 0.75 1.74 0.75 3.02 2.03 1.28 1.28 2.03 3.01 0.75 1.74 0.75 3.71 0 1.97-0.75 3.7-0.75 1.74-2.03 3.02-1.28 1.28-3.01 2.03-1.74 0.75-3.71 0.75zm0-1.5q3.35 0 5.68-2.32 2.32-2.33 2.32-5.68 0-3.35-2.32-5.68-2.33-2.32-5.68-2.32-3.35 0-5.67 2.32-2.33 2.33-2.33 5.68 0 3.35 2.33 5.68 2.32 2.32 5.67 2.32z"/>
	<path class="s1" d="m15.19 15.19q1.31-1.32 1.31-3.19 0-1.87-1.31-3.19-1.32-1.31-3.19-1.31-1.87 0-3.19 1.31-1.31 1.32-1.31 3.19 0 1.87 1.31 3.19 1.32 1.31 3.19 1.31 1.87 0 3.19-1.31z"/>
</svg>