<svg xmlns="http://www.w3.org/2000/svg" height="24px" viewBox="0 -960 960 960" width="24px" fill="#D2D2D2">
    <path d="M607.46-352.54Q660-405.08 660-480q0-74.92-52.54-127.46Q554.92-660 480-660q-74.92 0-127.46 52.54Q300-554.92 300-480q0 74.92 52.54 127.46Q405.08-300 480-300q74.92 0 127.46-52.54ZM480.07-100q-78.84 0-148.21-29.92t-120.68-81.21q-51.31-51.29-81.25-120.63Q100-401.1 100-479.93q0-78.84 29.92-148.21t81.21-120.68q51.29-51.31 120.63-81.25Q401.1-860 479.93-860q78.84 0 148.21 29.92t120.68 81.21q51.31 51.29 81.25 120.63Q860-558.9 860-480.07q0 78.84-29.92 148.21t-81.21 120.68q-51.29 51.31-120.63 81.25Q558.9-100 480.07-100Zm-.07-60q134 0 227-93t93-227q0-134-93-227t-227-93q-134 0-227 93t-93 227q0 134 93 227t227 93Z"/>
</svg>
