<?xml version="1.0" encoding="UTF-8"?>
<svg xmlns="http://www.w3.org/2000/svg" height="16px" viewBox="0 0 16 16" width="16px"><path d="m 6 2 c -0.550781 0 -1 0.449219 -1 1 v 1 h -3 c -0.550781 0 -1 0.449219 -1 1 v 8 c 0 0.550781 0.449219 1 1 1 h 12 c 0.550781 0 1 -0.449219 1 -1 v -8 c 0 -0.550781 -0.449219 -1 -1 -1 h -3 v -1 c 0 -0.550781 -0.449219 -1 -1 -1 z m 2 3 c 2.210938 0 4 1.789062 4 4 s -1.789062 4 -4 4 c -2.207031 0 -4 -1.789062 -4 -4 s 1.792969 -4 4 -4 z m 0 2 c -1.105469 0 -2 0.894531 -2 2 s 0.894531 2 2 2 s 2 -0.894531 2 -2 s -0.894531 -2 -2 -2 z m 0 0" fill="#fefefe"/></svg>
