<?xml version="1.0" encoding="UTF-8"?>
<svg height="16px" viewBox="0 0 16 16" width="16px" xmlns="http://www.w3.org/2000/svg">
    <path d="m 7.984375 3.988281 v 9.023438 h 3.003906 c 0.9375 0 1.765625 -0.375 2.296875 -0.960938 c 0.53125 -0.585937 0.765625 -1.335937 0.757813 -2.066406 c -0.011719 -0.730469 -0.265625 -1.464844 -0.792969 -2.042969 c -0.523438 -0.578125 -1.34375 -0.953125 -2.261719 -0.953125 h -1.003906 v -3 z m -4.996094 1.011719 v 2 h 1.917969 c -0.054688 0 0.085938 0.15625 0.085938 0.078125 v 0.925781 h -1.003907 c -1.71875 0 -3.03125 1.125 -3.054687 2.484375 c -0.015625 0.679688 0.304687 1.363281 0.859375 1.820313 c 0.554687 0.460937 1.316406 0.699218 2.195312 0.699218 h 3.003907 v -5.929687 c 0 -1.167969 -0.890626 -2.082031 -2.085938 -2.082031 z m 6.996094 3.988281 h 1.003906 c 0.417969 0 0.625 0.125 0.785157 0.300781 c 0.160156 0.175782 0.265624 0.445313 0.269531 0.722657 c 0.003906 0.277343 -0.089844 0.53125 -0.242188 0.695312 c -0.152343 0.167969 -0.355469 0.304688 -0.8125 0.304688 h -1.003906 z m -5.996094 1.015625 h 1 v 1.007813 h -1 c -0.519531 0 -0.796875 -0.140625 -0.921875 -0.242188 c -0.125 -0.105469 -0.136718 -0.175781 -0.132812 -0.246093 c 0 -0.144532 0.082031 -0.519532 1.054687 -0.519532 z m 0 0" fill="#fefefe"/>
</svg>
