<?xml version="1.0" encoding="UTF-8"?>
<svg height="16px" viewBox="0 0 16 16" width="16px" xmlns="http://www.w3.org/2000/svg">
    <g fill="#000000">
        <path d="m 3 1 c -1.644531 0 -3 1.355469 -3 3 v 8 c 0 1.644531 1.355469 3 3 3 h 8.882812 c 0.832032 0 1.578126 -0.402344 2.054688 -0.9375 c 0.472656 -0.53125 0.738281 -1.167969 0.910156 -1.800781 l 0.972656 -2.609375 c 0.390626 -1.449219 -0.09375 -2.652344 -0.820312 -3.167969 c -0.484375 -0.34375 -0.714844 -0.292969 -1 -0.324219 v -1.160156 c 0 -0.855469 -0.558594 -1.589844 -1.09375 -1.828125 c -0.53125 -0.238281 -1.011719 -0.167969 -1.011719 -0.167969 l 0.105469 -0.003906 h -3.585938 l -1.707031 -1.707031 c -0.1875 -0.1875 -0.441406 -0.292969 -0.707031 -0.292969 z m 0 2 h 2.585938 l 1.707031 1.707031 c 0.1875 0.1875 0.441406 0.292969 0.707031 0.292969 h 4 c 0.035156 0 0.070312 -0.003906 0.105469 -0.007812 c 0 0 0.019531 0.019531 -0.011719 0.003906 c -0.035156 -0.011719 -0.09375 -0.25 -0.09375 0.003906 v 2 c 0 0.550781 0.449219 1 1 1 c 1 0 1.046875 0.703125 0.886719 1.128906 l -0.972657 2.609375 c -0.117187 0.4375 -0.296874 0.800781 -0.472656 0.996094 c -0.175781 0.199219 -0.285156 0.265625 -0.558594 0.265625 h -8.882812 c -0.570312 0 -1 -0.429688 -1 -1 v -8 c 0 -0.570312 0.46875 -0.792969 1 -1 z m 0 0"/>
        <path d="m 7 6 l 0.042969 0.003906 c -0.914063 -0.042968 -1.75 0.390625 -2.195313 0.96875 c -0.710937 1.222656 -1.15625 2.277344 -1.800781 3.71875 c -0.171875 0.523438 0.117187 1.089844 0.640625 1.261719 c 0.527344 0.171875 1.09375 -0.117187 1.261719 -0.640625 c 0.488281 -1.011719 0.921875 -1.816406 1.339843 -2.808594 c 0.210938 -0.503906 0.703126 -0.492187 0.898438 -0.503906 h 5.8125 c 0.550781 0 1 -0.449219 1 -1 s -0.449219 -1 -1 -1 z m 0 0"/>
    </g>
</svg>
