<?xml version="1.0" encoding="UTF-8"?>
<svg height="16px" viewBox="0 0 16 16" width="16px" xmlns="http://www.w3.org/2000/svg">
    <path d="m 8 0.5625 c -1.230469 0 -2.4375 0.324219 -3.5 0.9375 c -2.167969 1.25 -3.5 3.5625 -3.5 6.0625 v 6 s 0 2 2 2 h 1 c 0.554688 0 1 -0.445312 1 -1 v -4 c 0 -0.554688 -0.5 -1 -1 -1 c 0 0 -1 0 -1 -1 v -1 c 0 -1.785156 0.953125 -3.4375 2.5 -4.332031 c 1.546875 -0.890625 3.453125 -0.890625 5 0 c 1.546875 0.894531 2.5 2.546875 2.5 4.332031 v 1 c 0 1 -1 1 -1 1 c -0.5 0 -1 0.445312 -1 1 v 4 c 0 0.554688 0.445312 1 1 1 h 1 c 2 0 2 -2 2 -2 v -6 c 0 -2.5 -1.335938 -4.8125 -3.5 -6.0625 c -1.0625 -0.613281 -2.269531 -0.9375 -3.5 -0.9375 z m 0 0" fill="#222222"/>
</svg>
