<?xml version="1.0" encoding="UTF-8"?>
<svg width="16px" height="16px" version="1.1" viewBox="0 0 16 16" xmlns="http://www.w3.org/2000/svg">
 <path d="m13 1c-0.55469 0-1 0.44531-1 1v12c0 0.55469 0.44531 1 1 1h1c0.55469 0 1-0.44531 1-1v-12c0-0.55469-0.44531-1-1-1zm-4 3c-0.55469 0-1 0.44531-1 1v9c0 0.55469 0.44531 1 1 1h1c0.55469 0 1-0.44531 1-1v-9c0-0.55469-0.44531-1-1-1zm-4 3c-0.55469 0-1 0.44531-1 1v6c0 0.55469 0.44531 1 1 1h1c0.55469 0 1-0.44531 1-1v-6c0-0.55469-0.44531-1-1-1zm-4 3c-0.55469 0-1 0.44531-1 1v3c0 0.55469 0.44531 1 1 1h1c0.55469 0 1-0.44531 1-1v-3c0-0.55469-0.44531-1-1-1z" fill="#fff" fill-opacity=".2"/>
</svg>
