<?xml version="1.0" encoding="UTF-8"?>
<svg version="1.1" viewBox="0 0 16 16" xmlns="http://www.w3.org/2000/svg">
<path fill="#fefefe" d="m8 0c-0.82812 0-1.5 0.67188-1.5 1.5 0 0.065275 0.00497 0.13004 0.013672 0.19531l-0.00195 0.027344c-1.1363 0.35584-2.0652 1.0999-2.6856 2.0488-0.5193 0.7943-0.82617 1.7307-0.82617 2.7285v4.5h-0.5c-0.55469 0-1 0.44531-1 1s0.44531 1 1 1h11c0.55469 0 1-0.44531 1-1s-0.44531-1-1-1h-0.50391v-4.4062c0.003906-0.03125 0.003906-0.0625 0.003906-0.09375 0-2.1914-1.4258-4.125-3.5195-4.7734 0.015625-0.078124 0.019531-0.15234 0.019531-0.22656 0-0.82812-0.66797-1.5-1.5-1.5zm-2 14c0 0.71484 0.37891 1.375 1 1.7305 0.61719 0.35938 1.3789 0.35938 2 0 0.61719-0.35547 1-1.0156 1-1.7305z"/>
</svg>
