<?xml version="1.0" encoding="UTF-8"?>
<svg height="16px" viewBox="0 0 16 16" width="16px" xmlns="http://www.w3.org/2000/svg">
    <path d="m 5.984375 0.00390625 l -1 0.99609375 l -3 0.003906 s -1 0 -1 1 l 0.015625 0.996094 h 15 l -0.015625 -0.996094 c 0 -1 -1 -1 -1 -1 l -3 -0.003906 l -1 -0.99609375 z m -3.984375 3.99609375 v 9 c 0 3 3 3 3 3 h 7 c 3 0 3 -3 3 -3 v -9 h -2 v 9 c 0 1 -1 1 -1 1 h -7 s -1 0 -1 -1 v -9 z m 4 1 v 7 h 1 v -7 z m 2 0 v 7 h 1 v -7 z m 2 0 v 7 h 1 v -7 z m 0 0" fill="#fefefe"/>
</svg>
