<?xml version="1.0" encoding="UTF-8"?>
<svg xmlns="http://www.w3.org/2000/svg" height="16px" viewBox="0 0 16 16" width="16px"><path d="m 7.90625 0.105469 c -0.527344 -0.027344 -1.039062 0.28125 -1.4375 0.96875 l -6.25 11.59375 c -0.535156 0.964843 0.046875 2.34375 1.09375 2.34375 h 13.15625 c 0.980469 0 1.902344 -1.160157 1.21875 -2.34375 l -6.3125 -11.53125 c -0.398438 -0.648438 -0.941406 -1.003907 -1.46875 -1.03125 z m 0.0625 3.9375 c 0.542969 -0.019531 1.046875 0.488281 1.03125 1.03125 v 3.9375 c 0.007812 0.527343 -0.472656 1 -1 1 s -1.007812 -0.472657 -1 -1 v -3.9375 c -0.007812 -0.46875 0.355469 -0.914063 0.8125 -1 c 0.050781 -0.015625 0.101562 -0.023438 0.15625 -0.03125 z m 0.03125 6.96875 c 0.550781 0 1 0.449219 1 1 s -0.449219 1 -1 1 s -1 -0.449219 -1 -1 s 0.449219 -1 1 -1 z m 0 0" fill="#202020"/></svg>
