<svg version="1.1" x="0" y="0" width="128" height="128" viewBox="0 0 128 128">
<g>
	<path fill="none" stroke="#2e2e2e" stroke-width="8" stroke-miterlimit="10" d="M115.579,104.737
		c0,6.221-5.012,11.263-11.192,11.263H22.771c-6.182,0-11.192-5.042-11.192-11.263V23.263c0-6.221,5.01-11.263,11.192-11.263h81.615
		c6.181,0,11.192,5.042,11.192,11.263V104.737z"/>
	<path display="none" fill="#2e2e2e" d="M90,77.91C90,84.587,84.587,90,77.91,90H50.09C43.413,90,38,84.587,38,77.91V50.09
		C38,43.413,43.413,38,50.09,38h27.82C84.587,38,90,43.413,90,50.09V77.91z"/>
</g>
</svg>
