<?xml version="1.0" encoding="UTF-8"?>
<svg height="16px" viewBox="0 0 16 16" width="16px" xmlns="http://www.w3.org/2000/svg">
    <path d="m 2 1 c -0.550781 0 -0.992188 0.445312 -0.992188 0.992188 l -0.007812 9.007812 c 0 0.265625 0.105469 0.519531 0.292969 0.707031 s 0.441406 0.292969 0.707031 0.292969 h 2 v -6 c 0 -1.105469 0.894531 -2 2 -2 h 5 v -2 c 0 -0.550781 -0.449219 -1 -1 -1 z m 4 4 c -0.550781 0 -1 0.449219 -1 1 v 9 c 0 0.550781 0.449219 1 1 1 h 6 l 3 -3 v -7 c 0 -0.550781 -0.449219 -1 -1 -1 z m 0 0" fill="#222222"/>
</svg>
