<?xml version="1.0" encoding="UTF-8"?>
<svg xmlns="http://www.w3.org/2000/svg" height="16px" viewBox="0 0 16 16" width="16px"><g fill="#202020"><path d="m 6.957031 3.015625 c -0.101562 0.003906 -0.199219 0.023437 -0.292969 0.054687 c -0.0625 0.023438 -0.125 0.054688 -0.179687 0.085938 c -0.03125 0.019531 -0.058594 0.039062 -0.082031 0.058594 c -0.082032 0.058594 -0.152344 0.132812 -0.210938 0.210937 c -0.082031 0.109375 -0.136718 0.234375 -0.164062 0.363281 c -0.007813 0.03125 -0.015625 0.066407 -0.019532 0.097657 c -0.003906 0.039062 -0.007812 0.074219 -0.007812 0.113281 v 8.382812 l -2.550781 -1.277343 c -0.464844 -0.234375 -1.03125 -0.074219 -1.300781 0.367187 c -0.273438 0.441406 -0.164063 1.019532 0.253906 1.328125 l 3.976562 2.980469 l 0.019532 0.019531 c 0.011718 0.007813 0.019531 0.011719 0.03125 0.019531 c 0.015624 0.011719 0.03125 0.019532 0.046874 0.03125 c 0.011719 0.007813 0.023438 0.011719 0.035157 0.019532 c 0.015625 0.007812 0.03125 0.015625 0.042969 0.023437 c 0.019531 0.007813 0.039062 0.015625 0.054687 0.023438 c 0.015625 0.007812 0.027344 0.011719 0.039063 0.015625 c 0.019531 0.007812 0.042968 0.015625 0.0625 0.023437 c 0.007812 0.003907 0.019531 0.003907 0.03125 0.007813 c 0.015624 0.003906 0.03125 0.007812 0.050781 0.011718 c 0.015625 0.003907 0.035156 0.007813 0.054687 0.011719 c 0.011719 0 0.019532 0.003907 0.027344 0.003907 c 0.027344 0.003906 0.054688 0.003906 0.082031 0.007812 h 0.042969 h 5 s 0.457031 0.015625 0.949219 -0.230469 c 0.488281 -0.246093 1.050781 -0.9375 1.050781 -1.769531 v -4 c 0 -0.460938 -0.3125 -0.859375 -0.757812 -0.96875 l -4 -1 c -0.078126 -0.023438 -0.160157 -0.03125 -0.242188 -0.03125 h -1 v -4 c 0 -0.101562 -0.019531 -0.199219 -0.050781 -0.292969 c -0.027344 -0.097656 -0.074219 -0.1875 -0.132813 -0.269531 c -0.019531 -0.027344 -0.039062 -0.054688 -0.0625 -0.078125 c -0.0625 -0.074219 -0.140625 -0.140625 -0.226562 -0.195313 c -0.027344 -0.015624 -0.054688 -0.03125 -0.085938 -0.046874 c -0.03125 -0.015626 -0.058594 -0.027344 -0.09375 -0.039063 c -0.03125 -0.011719 -0.0625 -0.023437 -0.09375 -0.03125 s -0.066406 -0.015625 -0.097656 -0.023437 c -0.066406 -0.007813 -0.132812 -0.011719 -0.199219 -0.007813 z m 0 0"/><path d="m 7 0 c -2.199219 0 -4 1.800781 -4 4 c 0 1.464844 0.8125 2.742188 2 3.4375 v -3.4375 c 0 -1.089844 0.910156 -2 2 -2 s 2 0.910156 2 2 v 3 c 0.082031 0 0.164062 0.007812 0.242188 0.03125 l 0.253906 0.0625 c 0.910156 -0.734375 1.503906 -1.84375 1.503906 -3.09375 c 0 -2.199219 -1.804688 -4 -4 -4 z m 0 0" fill-opacity="0.501961"/></g></svg>
