<?xml version="1.0" encoding="UTF-8"?>
<svg xmlns="http://www.w3.org/2000/svg" height="16px" viewBox="0 0 16 16" width="16px"><path d="m 9 7 v 0.5 s 0 0.5 0.5 0.5 s 0.5 -0.5 0.5 -0.5 v -5.5 c 0 -0.554688 0.445312 -1 1 -1 s 1 0.445312 1 1 v 9.5 c 0 0.5 0.5 0.5 0.5 0.5 l 1.792969 -1.707031 c 0.1875 -0.195313 0.445312 -0.304688 0.71875 -0.304688 c 1.082031 0.085938 1.144531 1.269531 0.695312 1.71875 l -3 3 c -0.707031 0.792969 -1.757812 1.289063 -2.707031 1.292969 h -6 c -3 0 -3 -3 -3 -3 v -6.054688 c 0 -0.554687 0.445312 -1 1 -1 s 1 0.445313 1 1 v 0.554688 s 0 0.5 0.5 0.5 s 0.5 -0.5 0.5 -0.5 v -0.5 c 0 -0.554688 0.445312 -1 1 -1 s 1 0.445312 1 1 v 0.5 s 0 0.5 0.5 0.5 s 0.5 -0.5 0.5 -0.5 v -0.5 c 0 -0.554688 0.453125 -0.992188 1 -1 c 0.585938 -0.011719 1 0.445312 1 1 z m 0 0" fill="#202020"/></svg>
