<?xml version="1.0" encoding="UTF-8"?>
<svg height="16px" viewBox="0 0 16 16" width="16px" xmlns="http://www.w3.org/2000/svg">
    <path d="m 7.5 0 c -0.277344 0 -0.5 0.222656 -0.5 0.5 v 0.5 h -1.5 c -0.277344 0 -0.5 0.222656 -0.5 0.5 v 3 c 0 0.277344 0.222656 0.5 0.5 0.5 h 5 c 0.277344 0 0.5 -0.222656 0.5 -0.5 v -3 c 0 -0.277344 -0.222656 -0.5 -0.5 -0.5 h -1.5 v -0.5 c 0 -0.277344 -0.222656 -0.5 -0.5 -0.5 z m -3.5 1 c -1.644531 0 -3 1.355469 -3 3 v 9 c 0 1.644531 1.355469 3 3 3 h 8 c 1.644531 0 3 -1.355469 3 -3 v -9 c 0 -1.644531 -1.355469 -3 -3 -3 v 2 c 0.570312 0 1 0.429688 1 1 v 9 c 0 0.570312 -0.429688 1 -1 1 h -8 c -0.570312 0 -1 -0.429688 -1 -1 v -9 c 0 -0.570312 0.429688 -1 1 -1 z m 0.011719 5.015625 v 5.96875 h 6 l 1.988281 -1.984375 l -0.023438 -3.984375 z m 0 0" fill="#222222"/>
</svg>
