<?xml version="1.0" encoding="UTF-8"?>
<svg height="16px" viewBox="0 0 16 16" width="16px" xmlns="http://www.w3.org/2000/svg">
    <path d="m 2.5 2.007812 s -0.5 0.222657 -0.5 0.5 v 0.988282 c 0 0.273437 0.5 0.5 0.5 0.5 h 1 s 0.5 -0.226563 0.5 -0.5 v -0.988282 c 0 -0.277343 -0.5 -0.5 -0.5 -0.5 z m 4 0 c -0.277344 0 -0.5 0.222657 -0.5 0.5 v 0.988282 c 0 0.273437 0.222656 0.5 0.5 0.5 h 8 c 0.277344 0 0.5 -0.226563 0.5 -0.5 v -0.988282 c 0 -0.277343 -0.222656 -0.5 -0.5 -0.5 z m -4 5 s -0.5 0.222657 -0.5 0.5 v 0.988282 c 0 0.273437 0.5 0.5 0.5 0.5 h 1 s 0.5 -0.226563 0.5 -0.5 v -0.988282 c 0 -0.277343 -0.5 -0.5 -0.5 -0.5 z m 4 0 s -0.5 0.222657 -0.5 0.5 v 0.988282 c 0 0.273437 0.222656 0.5 0.5 0.5 h 8 c 0.277344 0 0.5 -0.226563 0.5 -0.5 v -0.988282 c 0 -0.277343 -0.5 -0.5 -0.5 -0.5 z m -4 5 c -0.277344 0 -0.5 0.222657 -0.5 0.5 v 0.988282 c 0 0.273437 0.5 0.5 0.5 0.5 h 1 s 0.5 -0.226563 0.5 -0.5 v -0.988282 c 0 -0.277343 -0.222656 -0.5 -0.5 -0.5 z m 4 0 c -0.277344 0 -0.5 0.222657 -0.5 0.5 v 0.988282 c 0 0.273437 0.222656 0.5 0.5 0.5 h 8 c 0.277344 0 0.5 -0.226563 0.5 -0.5 v -0.988282 c 0 -0.277343 -0.222656 -0.5 -0.5 -0.5 z m 0 0" fill="#202020"/>
</svg>
