<svg xmlns="http://www.w3.org/2000/svg" viewBox="0 0 24 24"><path fill="#d2d2d2" d="M1.5 1.5h1.5v1.5H1.5V1.5zM4.5 1.5h1.5v1.5H4.5V1.5zM7.5 1.5h1.5v1.5H7.5V1.5zM22.5 3H10.5V1.5h12v1.5zM22.5 22.5H1.5V4.5h21v18zM24 1.5c0-.55-.45-1.5-1.5-1.5H1.5c-.55 0-1.5 .45-1.5 1.5v21c0 .55 .45 1.5 1.5 1.5h21c.55 0 1.5-.45 1.5-1.5z"/><g fill="none" stroke-linecap="round" stroke-linejoin="round" stroke-width="2" stroke="#d2d2d2"><polygon points="10 6.5 7 10.5 4 10.5 4 16.5 7 16.5 10 20.5" fill="#d2d2d2" stroke="#d2d2d2"/><path d="M17 6.5a10 10 0 0 1 0 14M14 10a5 5 0 0 1 0 7"/></g></svg>
