<svg version="1.2" xmlns="http://www.w3.org/2000/svg" fill="#d2d2d2" width="64px" height="64px" viewBox="0 0 64 64" enable-background="new 0 0 64 64"><path d="M39.5,10c0,4.216-3.357,7.633-7.5,7.633l0,0c-4.143,0-7.5-3.417-7.5-7.633l0,0c0-4.216,3.357-7.633,7.5-7.633l0,0 C36.143,2.367,39.5,5.784,39.5,10L39.5,10z"/><path d="M39.5,32c0,4.217-3.356,7.634-7.5,7.634l0,0c-4.143,0-7.5-3.417-7.5-7.634l0,0c0-4.216,3.357-7.633,7.5-7.633l0,0 C36.144,24.367,39.5,27.784,39.5,32L39.5,32z"/><path d="M39.5,54c0,4.215-3.357,7.633-7.5,7.633l0,0c-4.141,0-7.5-3.418-7.5-7.633l0,0c0-4.216,3.359-7.633,7.5-7.633l0,0 C36.143,46.367,39.5,49.784,39.5,54L39.5,54z"/></svg>