<?xml version="1.0" encoding="UTF-8" standalone="no"?>
<!DOCTYPE svg PUBLIC "-//W3C//DTD SVG 1.1//EN" "http://www.w3.org/Graphics/SVG/1.1/DTD/svg11.dtd">
<svg width="100%" height="100%" viewBox="0 0 24 24" version="1.1" xmlns="http://www.w3.org/2000/svg" xmlns:xlink="http://www.w3.org/1999/xlink" xml:space="preserve" xmlns:serif="http://www.serif.com/" style="fill-rule:evenodd;clip-rule:evenodd;stroke-linejoin:round;stroke-miterlimit:2;">
    <g transform="matrix(1,0,0,1,0.0326345,-0.0242089)">
        <g>
            <g transform="matrix(1,0,0,1,-6.03263,-5.97579)">
                <path d="M7,11L19.1,11C19.5,12.7 21.1,14 23,14C24.9,14 26.4,12.7 26.9,11L29,11C29.6,11 30,10.6 30,10C30,9.4 29.6,9 29,9L26.9,9C26.5,7.3 24.9,6 23,6C21.1,6 19.6,7.3 19.1,9L7,9C6.4,9 6,9.4 6,10C6,10.6 6.4,11 7,11ZM23,8C24.1,8 25,8.9 25,10C25,11.1 24.1,12 23,12C21.9,12 21,11.1 21,10C21,8.9 21.9,8 23,8Z" style="fill:white;fill-rule:nonzero;"/>
            </g>
            <g transform="matrix(1,0,0,1,-6.03263,-5.97579)">
                <path d="M29,17L16.9,17C16.5,15.3 14.9,14 13,14C11.1,14 9.6,15.3 9.1,17L7,17C6.4,17 6,17.4 6,18C6,18.6 6.4,19 7,19L9.1,19C9.5,20.7 11.1,22 13,22C14.9,22 16.4,20.7 16.9,19L29,19C29.6,19 30,18.6 30,18C30,17.4 29.6,17 29,17ZM13,20C11.9,20 11,19.1 11,18C11,16.9 11.9,16 13,16C14.1,16 15,16.9 15,18C15,19.1 14.1,20 13,20Z" style="fill:white;fill-rule:nonzero;"/>
            </g>
            <g transform="matrix(1,0,0,1,-6.03263,-5.97579)">
                <path d="M29,25L26.9,25C26.5,23.3 24.9,22 23,22C21.1,22 19.6,23.3 19.1,25L7,25C6.4,25 6,25.4 6,26C6,26.6 6.4,27 7,27L19.1,27C19.5,28.7 21.1,30 23,30C24.9,30 26.4,28.7 26.9,27L29,27C29.6,27 30,26.6 30,26C30,25.4 29.6,25 29,25ZM23,28C21.9,28 21,27.1 21,26C21,24.9 21.9,24 23,24C24.1,24 25,24.9 25,26C25,27.1 24.1,28 23,28Z" style="fill:white;fill-rule:nonzero;"/>
            </g>
        </g>
    </g>
</svg>
