<svg xmlns="http://www.w3.org/2000/svg" xmlns:xlink="http://www.w3.org/1999/xlink" viewBox="0 0 60 60" version="1.1" x="0px" y="0px"><title>Desktop Publishing - Outline - 037 - Fill Frame</title><desc>Created with Sketch.</desc><g stroke="none" stroke-width="1" fill="none" fill-rule="evenodd"><g fill-rule="nonzero" fill="#FFFFFF"><path d="M58,0 L56,0 C54.8959536,0.00126196688 54.001262,0.895953647 54,2 L6,2 C5.99873803,0.895953647 5.10404635,0.00126196688 4,2.22298846e-16 L2,2.22298846e-16 C0.895953647,0.00126196688 0.00126196688,0.895953647 0,2 L0,4 C0.00126196688,5.10404635 0.895953647,5.99873803 2,6 L2,54 C0.895953647,54.001262 0.00126196688,54.8959536 0,56 L0,58 C0.00126196688,59.1040464 0.895953647,59.998738 2,60 L4,60 C5.10404635,59.998738 5.99873803,59.1040464 6,58 L54,58 C54.001262,59.1040464 54.8959536,59.998738 56,60 L58,60 C59.1040464,59.998738 59.998738,59.1040464 60,58 L60,56 C59.998738,54.8959536 59.1040464,54.001262 58,54 L58,6 C59.1040464,5.99873803 59.998738,5.10404635 60,4 L60,2 C59.998738,0.895953647 59.1040464,0.00126196688 58,0 Z M14.91406,29 L29,14.91406 L29,21.08594 L21.08594,29 L14.91406,29 Z M29,23.91406 L29,29 L23.91406,29 L29,23.91406 Z M29,12.08594 L12.08594,29 L5.91406,29 L29,5.91406 L29,12.08594 Z M4,12.91406 L12.91406,4 L19.08594,4 L4,19.08594 L4,12.91406 Z M28.08594,4 L4,28.08594 L4,21.91406 L21.91406,4 L28.08594,4 Z M2,2 L4,1.99854 L4,4 L2,4 L2,2 Z M6,4 L10.08594,4 L4,10.08594 L4,6 C5.10404635,5.99873803 5.99873803,5.10404635 6,4 Z M4,58 L2,58 L2,56 L2.9964,55.99927 L3,56 L3.00366,55.99927 L4,55.99854 L4,58 Z M58,58 L56,58 L56,56 L56.9964,55.99927 L57,56 L57.00366,55.99927 L58,55.99854 L58,58 Z M56,54 C54.8959536,54.001262 54.001262,54.8959536 54,56 L6,56 C5.99873803,54.8959536 5.10404635,54.001262 4,54 L4,31 L17,31 L17,39.00049 L14.59961,37.2002 C14.313937,36.9847688 13.9349058,36.9384532 13.6057639,37.0787573 C13.2766219,37.2190613 13.0475703,37.5245857 13.0051747,37.8798634 C12.962779,38.2351411 13.1135055,38.5859849 13.40039,38.7998 L17.40039,41.7998 C17.41962,41.81427 17.4422,41.81915 17.46204,41.83203 C17.4910726,41.8545496 17.5213505,41.8754159 17.55273,41.89453 C17.56934,41.90283 17.58826,41.89953 17.6051,41.90686 C17.7285854,41.9646998 17.8626871,41.996409 17.999,42 L17.99949,41.99988 L18,42 C18.1343945,41.9966264 18.2667057,41.9660083 18.38892,41.91 C18.4232532,41.8945491 18.4566446,41.8770854 18.48892,41.8577 C18.5270135,41.8408112 18.563977,41.821481 18.59958,41.79983 L22.59958,38.79983 C22.8864645,38.5860149 23.037191,38.2351711 22.9947953,37.8798934 C22.9523997,37.5246157 22.7233481,37.2190913 22.3942061,37.0787873 C22.0650642,36.9384832 21.686033,36.9847988 21.40036,37.20023 L19,39 L19,31 L30,31 C30.2652376,31.000069 30.5196316,30.8947343 30.707183,30.707183 C30.8947343,30.5196316 31.000069,30.2652376 31,30 L31,18 L39.00012,18 L37.2002,20.3999 C36.9858049,20.685641 36.9401367,21.064055 37.0803981,21.3925972 C37.2206595,21.7211393 37.5255416,21.9498961 37.8801981,21.9926972 C38.2348547,22.0354982 38.5854049,21.885841 38.7998,21.6001 L41.7998,17.6001 C41.8114,17.58466 41.81317,17.5658 41.82373,17.54993 C41.8878837,17.47755 41.9303399,17.3885548 41.94623,17.29315 C41.95441,17.26685 41.96623,17.24249 41.97211,17.21582 C41.9967116,17.1058298 42.0024264,16.9924565 41.98901,16.88055 C41.9859,16.8548 41.97687,16.83124 41.97174,16.80579 C41.954035,16.717163 41.9242152,16.6313947 41.88312,16.5509 C41.8686621,16.5210755 41.8526398,16.4920351 41.83512,16.4639 C41.82188,16.44315 41.81474,16.41977 41.79978,16.3999 L38.79978,12.3999 C38.4683539,11.9581827 37.8415973,11.8687739 37.39988,12.2002 C36.9581627,12.5316261 36.8687539,13.1583827 37.20018,13.6001 L39,16 L31,16 L31,4 L54,4 C54.001262,5.10404635 54.8959536,5.99873803 56,6 L56,54 Z M58,4 L56,4 L56,2 L58,1.99854 L58,4 Z"></path></g></g></svg>