<svg xmlns="http://www.w3.org/2000/svg" xmlns:xlink="http://www.w3.org/1999/xlink" version="1.1" x="0px" y="0px" viewBox="0 0 100 100" enable-background="new 0 0 100 100" xml:space="preserve"><g><path fill="#FFFFFF" d="M93.476,44.145c-1.7-1.479-4.278-1.299-5.755,0.403l-4.094,4.705c-0.986-8.511-4.724-16.782-11.247-23.303   c-7.694-7.69-17.801-11.55-27.871-11.544c-2.253,0-4.081,1.827-4.081,4.081s1.828,4.081,4.081,4.081l0,0   c8.003,0.005,15.979,3.041,22.1,9.154c5.643,5.648,8.55,12.897,8.978,20.285l-7.134-6.204c-1.7-1.48-4.278-1.301-5.755,0.4   c-1.483,1.702-1.302,4.279,0.399,5.758l13.428,11.68c0.056,0.049,0.13,0.061,0.189,0.108c0.239,0.187,0.507,0.317,0.792,0.449   c0.221,0.104,0.433,0.212,0.664,0.273c0.093,0.025,0.162,0.086,0.258,0.104c0.186,0.037,0.364-0.015,0.55-0.005   c0.17,0.011,0.337,0.075,0.51,0.063c0.09-0.007,0.173-0.058,0.263-0.07c0.274-0.038,0.521-0.118,0.776-0.208   c0.021-0.008,0.045-0.01,0.066-0.017c0.133-0.049,0.279-0.046,0.407-0.109c0.08-0.04,0.141-0.124,0.218-0.169   c0.244-0.141,0.449-0.318,0.659-0.506c0.13-0.116,0.29-0.179,0.409-0.314L93.88,49.903C95.357,48.202,95.182,45.625,93.476,44.145z   "></path><path fill="#FFFFFF" d="M50.174,40.541c-0.763-0.763-1.796-1.198-2.885-1.198H9.199c-1.087,0-2.12,0.435-2.883,1.198   c-0.763,0.761-1.198,1.795-1.198,2.883v38.089c0,1.089,0.436,2.122,1.198,2.884c0.763,0.762,1.796,1.197,2.883,1.197h38.089   c1.089,0,2.123-0.435,2.885-1.197c0.76-0.762,1.196-1.795,1.196-2.884V43.424C51.37,42.336,50.934,41.302,50.174,40.541z    M43.208,77.433H13.28V47.506h29.927V77.433z"></path></g></svg>