<svg xmlns="http://www.w3.org/2000/svg" width="100" height="100" viewBox="0 0 100 100" fill="#d2d2d2"><g id="Layer_2"><path class="st0" d="M95.4,43.1H58.7c0-2.5-2.1-4.6-4.6-4.6H35.8c-2.5,0-4.6,2.1-4.6,4.6c-2.5,0-4.6,2.1-4.6,4.6V89,c0,2.5,2.1,4.6,4.6,4.6h64.2c2.5,0,4.6-2.1,4.6-4.6V47.7C100,45.2,97.9,43.1,95.4,43.1z M54.2,52.3H35.8v-4.6h18.3V52.3z,M74.8,84.4c-8.9,0-16-7.2-16-16c0-8.9,7.2-16,16-16s16,7.2,16,16S83.7,84.4,74.8,84.4z M86.2,68.4c0,6.3-5.2,11.5-11.5,11.5,s-11.5-5.2-11.5-11.5s5.2-11.5,11.5-11.5S86.2,62.1,86.2,68.4z"/></g><g id="Layer_3"><path class="st0" d="M78.2,35.1 M83.4,35.1 M0,76.4c0-1.7,0-3.5,0-5.2V6.4c1.7,0,3.5,0,5.2,0h73c1.7,0,3.5,0,5.2,0v32.2l-5.2,0v-27,h-73v59.6h16.9v5.2"/></g></svg>

