<svg id="Layer_1" data-name="Layer 1" xmlns="http://www.w3.org/2000/svg" xmlns:xlink="http://www.w3.org/1999/xlink" viewBox="0 0 993 993"><defs><style>.cls-1{fill:url(#radial-gradient);}.cls-2{fill:none;}.cls-3{fill:url(#radial-gradient-2);}.cls-4{fill:url(#radial-gradient-3);}.cls-5{clip-path:url(#clip-path);}.cls-6{fill:url(#radial-gradient-5);}.cls-7{clip-path:url(#clip-path-2);}.cls-8{fill:url(#radial-gradient-6);}.cls-9{fill:url(#radial-gradient-7);}</style><radialGradient id="radial-gradient" cx="512.06144" cy="512.12118" r="444.12235" gradientUnits="userSpaceOnUse"><stop offset="0.99" stop-opacity="0.5"/><stop offset="1" stop-opacity="0"/></radialGradient><radialGradient id="radial-gradient-2" cx="514.5" cy="516.5" r="496.5" gradientUnits="userSpaceOnUse"><stop offset="0.91341"/><stop offset="1" stop-opacity="0"/></radialGradient><radialGradient id="radial-gradient-3" cx="512.05911" cy="512.1212" r="486.27268" gradientUnits="userSpaceOnUse"><stop offset="0.99" stop-color="#fff"/><stop offset="0.99505" stop-color="#fdfdfd"/><stop offset="0.99687" stop-color="#f6f6f6"/><stop offset="0.99817" stop-color="#ebebeb"/><stop offset="0.99921" stop-color="#dadada"/><stop offset="1" stop-color="#c7c7c7"/></radialGradient><clipPath id="clip-path" transform="translate(-18 -20)"><path id="SVGID" class="cls-1" d="M67.93793,512.1212c0,245.28622,198.83963,444.12116,444.12116,444.12116S956.185,757.40742,956.185,512.1212C956.185,266.83966,757.34063,68,512.05909,68S67.93793,266.83966,67.93793,512.1212"/></clipPath><radialGradient id="radial-gradient-5" cx="494.0614" cy="492.1212" r="444.12237" xlink:href="#radial-gradient"/><clipPath id="clip-path-2" transform="translate(-18 -20)"><path class="cls-2" d="M71.60309,512.1212c0,243.262,197.19869,440.456,440.456,440.456s440.46067-197.194,440.46067-440.456c0-243.25733-197.20334-440.45606-440.46067-440.45606S71.60309,268.86387,71.60309,512.1212"/></clipPath><radialGradient id="radial-gradient-6" cx="5.29522" cy="1029.31443" r="4.65333" gradientTransform="matrix(94.65428, 0, 0, -94.65428, -7.15418, 97921.13875)" gradientUnits="userSpaceOnUse"><stop offset="0"/><stop offset="1" stop-color="#322f32"/></radialGradient><radialGradient id="radial-gradient-7" cx="578.89023" cy="473.31944" r="353.94182" gradientTransform="translate(0 -45.94173) scale(1 1.09706)" gradientUnits="userSpaceOnUse"><stop offset="0" stop-color="#c2c0c2"/><stop offset="1" stop-color="#ebebeb"/></radialGradient></defs><title>OBS-Alt-2</title><path class="cls-3" d="M514.5,20C788.71048,20,1011,242.28952,1011,516.5S788.71048,1013,514.5,1013,18,790.71056,18,516.5,240.28946,20,514.5,20" transform="translate(-18 -20)"/><path class="cls-4" d="M512.05911,25.84852c268.56207,0,486.27268,217.71061,486.27268,486.27268S780.62118,998.39388,512.05911,998.39388,25.78643,780.68334,25.78643,512.1212,243.497,25.84852,512.05911,25.84852" transform="translate(-18 -20)"/><path id="SVGID-2" data-name="SVGID" class="cls-1" d="M67.93793,512.1212c0,245.28622,198.83963,444.12116,444.12116,444.12116S956.185,757.40742,956.185,512.1212C956.185,266.83966,757.34063,68,512.05909,68S67.93793,266.83966,67.93793,512.1212" transform="translate(-18 -20)"/><g class="cls-5"><rect class="cls-6" x="49.93786" y="48" width="888.24709" height="888.2424"/></g><g class="cls-7"><rect class="cls-8" x="53.60302" y="51.66514" width="880.91676" height="880.91211"/></g><path class="cls-9" d="M684.907,370.50177a199.24212,199.24212,0,0,1-277.2406,70.45605A202.74787,202.74787,0,0,1,362.753,403.18446a198.9214,198.9214,0,0,1-49.89819-141.13313c.28387-5.78965.76859-11.56257,1.52683-17.30975.74726-5.66395,1.7459-11.30258,2.97756-16.87354q1.89659-8.57846,4.54716-16.96232,2.572-8.15982,5.86352-16.07336c2.27456-5.48511,4.8105-10.85411,7.54648-16.122,2.88124-5.54761,6.07307-10.94466,9.4812-16.1843q4.7149-7.24866,10.04419-14.06235c3.85433-4.95083,7.95005-9.72719,12.27081-14.27641q6.54174-6.88764,13.66916-13.16194c4.83847-4.26274,9.91241-8.2498,15.13962-12.02191q4.04222-2.917,8.23639-5.61188a244.394,244.394,0,0,0-109.08168,323.486q.82056,1.704,1.66751,3.39519.38468.7681.77476,1.53348a4.60036,4.60036,0,0,0,.46987.91713c.32364.35883.40473.29867.89987.28969,2.578-.04676,5.15806-.03471,7.73585.021q7.14438.15426,14.26584.8147A199.577,199.577,0,0,1,499.05209,600.21532a201.32943,201.32943,0,0,1,.64133,60.16627A198.7484,198.7484,0,0,1,453.532,762.237a202.19273,202.19273,0,0,1-49.77669,41.78411A199.86222,199.86222,0,0,1,279.6049,830.51543a203.06671,203.06671,0,0,1-23.20252-4.02994c-4.95445-1.16337-9.85994-2.531-14.71085-4.07118a242.60378,242.60378,0,0,0,68.54706,18.97282,247.03638,247.03638,0,0,0,66.4102-.79809,243.52975,243.52975,0,0,0,108.66832-44.88732,246.04226,246.04226,0,0,0,59.73343-63.07421q1.04115-1.58711,2.05761-3.19021c.263-.41478.85074-1.06891.77441-1.50894a8.49447,8.49447,0,0,0-1.05057-1.9447q-2.00279-3.75737-3.8436-7.59815-3.698-7.71623-6.7219-15.73206a198.01918,198.01918,0,0,1-9.34078-33.367,200.87418,200.87418,0,0,1,.041-73.98045A197.88137,197.88137,0,0,1,548.324,536.05063,199.08091,199.08091,0,0,1,721.41371,432.9917q7.33682-.05093,14.66347.42449,7.066.47,14.088,1.41786,6.952.95079,13.82736,2.39389,6.73038,1.4208,13.355,3.29017,6.48924,1.84088,12.8432,4.11821,6.44067,2.31259,12.7085,5.06391,6.3891,2.79015,12.56139,6.04592,6.16559,3.24277,12.09984,6.9069c3.71356,2.2975,7.36439,4.705,10.91293,7.25121q5.48994,3.93921,10.72616,8.20808c3.603,2.93077,7.0801,6.01877,10.46193,9.202q5.40071,5.08362,10.4077,10.563,4.9978,5.44733,9.57009,11.27034c3.4,4.31833,6.6383,8.77214,9.66035,13.36317,3.10448,4.71627,6.03931,9.55546,8.74828,14.51488a200.21456,200.21456,0,0,1,10.06824,21.36634,206.9737,206.9737,0,0,1,7.97272,24.37127,243.74067,243.74067,0,0,0-51.67776-120.94126,245.663,245.663,0,0,0-75.01182-62.48165,242.85789,242.85789,0,0,0-95.94806-28.3044Q689.18423,370.69463,684.907,370.50177Z" transform="translate(-18 -20)"/></svg>