<?xml version="1.0" encoding="UTF-8"?>
<svg xmlns="http://www.w3.org/2000/svg" height="16px" viewBox="0 0 16 16" width="16px"><path d="m 7.894531 0 c -4.378906 0 -7.894531 3.625 -7.894531 8 c 0 4.417969 3.582031 8 8 8 s 8 -3.582031 8 -8 s -3.582031 -8 -8 -8 c -0.035156 0 -0.070312 0 -0.105469 0 z m -1.96875 2.460938 c 0.234375 0.019531 0.4375 0.171874 0.523438 0.390624 c 0.011719 0.226563 -0.160157 0.421876 -0.386719 0.4375 c -0.226562 0 -0.410156 0.183594 -0.410156 0.410157 v 1.183593 c 0 0.441407 -0.355469 0.800782 -0.796875 0.800782 c -0.441407 0 -0.796875 0.355468 -0.800781 0.796875 c 0 0.4375 -0.355469 0.796875 -0.796876 0.796875 c -0.441406 0 -0.796874 0.355468 -0.796874 0.796875 c 0 0.441406 0.355468 0.796875 0.796874 0.796875 c 0.441407 0 0.800782 0.355468 0.796876 0.800781 v 2.855469 c -1.28125 -1.136719 -2.015626 -2.765625 -2.015626 -4.476563 c 0 -1.492187 0.5625 -2.929687 1.566407 -4.027343 l 0.054687 -0.050782 c 0.234375 -0.25 0.488282 -0.480468 0.761719 -0.683594 l 0.039063 -0.03125 c 0.449218 -0.332031 0.941406 -0.601562 1.46875 -0.796874 z m 4.53125 0.433593 h 0.59375 c 0.480469 0.28125 0.917969 0.628907 1.304688 1.035157 c -0.035157 0.007812 -0.070313 0.011718 -0.105469 0.011718 h -1.792969 c -0.289062 0 -0.519531 -0.234375 -0.519531 -0.523437 c 0 -0.292969 0.230469 -0.523438 0.519531 -0.523438 z m -2.050781 0.871094 c 0.320312 0 0.578125 0.257813 0.578125 0.582031 v 0.632813 c 0 0.320312 -0.257813 0.582031 -0.578125 0.582031 s -0.582031 -0.261719 -0.582031 -0.582031 v -0.632813 c 0 -0.324218 0.261719 -0.582031 0.582031 -0.582031 z m 2.289062 0.671875 h 2.085938 c 0.761719 1 1.1875 2.21875 1.214844 3.476562 c -0.125 0.105469 -0.277344 0.164063 -0.441406 0.167969 l -1.128907 -0.007812 c -0.671875 0 -1.214843 0.546875 -1.21875 1.21875 v 1.347656 c 0.003907 0.441406 -0.355469 0.796875 -0.792969 0.796875 c -0.445312 0.003906 -0.800781 -0.355469 -0.800781 -0.796875 v -0.871094 c 0.089844 -0.3125 -0.089843 -0.636719 -0.398437 -0.730469 c -0.402344 0 -0.726563 -0.324218 -0.726563 -0.726562 v -1.238281 c -0.039062 -0.472657 0.316407 -0.882813 0.785157 -0.917969 c 0.394531 0 0.710937 -0.316406 0.714843 -0.710938 v -0.300781 c 0 -0.390625 0.316407 -0.707031 0.707031 -0.710937 z m 0 0" fill="#202020"/></svg>
