<?xml version="1.0" encoding="UTF-8"?>
<svg xmlns="http://www.w3.org/2000/svg" height="16px" viewBox="0 0 16 16" width="16px"><g fill="#202020"><path d="m 5.972656 5.023438 c -0.550781 0 -1 0.449218 -1 1 c 0 0.554687 0.449219 1 1 1 c 0.550782 0 1 -0.445313 1 -1 c 0 -0.550782 -0.449218 -1 -1 -1 z m 3.5 3 l -2 2 l -1.5 -1 l -2 2 v 0.5 c 0 0.5 0.5 0.5 0.5 0.5 h 7 s 0.472656 -0.03125 0.5 -0.5 v -1 z m 0 0"/><path d="m 3.972656 1.023438 c -1.644531 0 -3 1.355468 -3 3 v 8 c 0 1.648437 1.355469 3 3 3 h 8 c 1.644532 0 3 -1.351563 3 -3 v -8 c 0 -1.644532 -1.355468 -3 -3 -3 z m 0 2 h 8 c 0.570313 0 1 0.429687 1 1 v 8 c 0 0.574218 -0.429687 1 -1 1 h -8 c -0.570312 0 -1 -0.425782 -1 -1 v -8 c 0 -0.570313 0.429688 -1 1 -1 z m 0 0"/></g></svg>
