<?xml version="1.0" encoding="utf-8"?>
<!-- Generator: Adobe Illustrator 26.0.2, SVG Export Plug-In . SVG Version: 6.00 Build 0)  -->
<svg version="1.0" id="Layer_1" xmlns="http://www.w3.org/2000/svg" xmlns:xlink="http://www.w3.org/1999/xlink" x="0px" y="0px"
	 viewBox="0 0 993 993" style="enable-background:new 0 0 993 993;" xml:space="preserve">
<style type="text/css">
	.st0{fill:url(#SVGID_1_);}
	.st1{fill:url(#SVGID_00000062171159965967627490000013605884846004172698_);}
	.st2{fill:url(#SVGID-2_00000085966066984138215510000013018799571900533434_);}
	.st3{clip-path:url(#SVGID_00000023257072852279316340000004281102206337855156_);}
	.st4{fill:url(#SVGID_00000177446033621631838710000001370584907163434138_);}
	.st5{clip-path:url(#SVGID_00000136385553608229244970000014654043435100792964_);}
	.st6{fill:url(#SVGID_00000126306410582640054500000000964390405037519506_);}
	.st7{fill:url(#SVGID_00000109020757643166282930000006684795936706346369_);}
</style>
<radialGradient id="SVGID_1_" cx="514.5" cy="477.5" r="496.5" gradientTransform="matrix(1 0 0 -1 -18 974)" gradientUnits="userSpaceOnUse">
	<stop  offset="0.9134" style="stop-color:#000000"/>
	<stop  offset="1" style="stop-color:#000000;stop-opacity:0"/>
</radialGradient>
<path class="st0" d="M496.5,0C770.7,0,993,222.3,993,496.5S770.7,993,496.5,993S0,770.7,0,496.5S222.3,0,496.5,0"/>
<radialGradient id="SVGID_00000163033830155146975860000008434547654242457221_" cx="512.0591" cy="481.8788" r="486.2727" gradientTransform="matrix(1 0 0 -1 -18 974)" gradientUnits="userSpaceOnUse">
	<stop  offset="0.99" style="stop-color:#FFFFFF"/>
	<stop  offset="0.9951" style="stop-color:#FDFDFD"/>
	<stop  offset="0.9969" style="stop-color:#F6F6F6"/>
	<stop  offset="0.9982" style="stop-color:#EBEBEB"/>
	<stop  offset="0.9992" style="stop-color:#DADADA"/>
	<stop  offset="1" style="stop-color:#C7C7C7"/>
</radialGradient>
<path style="fill:url(#SVGID_00000163033830155146975860000008434547654242457221_);" d="M494.1,5.8
	c268.6,0,486.3,217.7,486.3,486.3S762.6,978.4,494.1,978.4S7.8,760.7,7.8,492.1S225.5,5.8,494.1,5.8"/>
<radialGradient id="SVGID-2_00000052072577768947982130000002178866272689676469_" cx="512.0615" cy="481.8788" r="444.1224" gradientTransform="matrix(1 0 0 -1 -18 974)" gradientUnits="userSpaceOnUse">
	<stop  offset="0.99" style="stop-color:#000000;stop-opacity:0.5"/>
	<stop  offset="1" style="stop-color:#000000;stop-opacity:0"/>
</radialGradient>
<path id="SVGID-2" style="fill:url(#SVGID-2_00000052072577768947982130000002178866272689676469_);" d="M49.9,492.1
	c0,245.3,198.8,444.1,444.1,444.1s444.1-198.8,444.1-444.1C938.2,246.8,739.3,48,494.1,48S49.9,246.8,49.9,492.1"/>
<g>
	<defs>
		<path id="SVGID_00000020370725417039028330000004494903873571563917_" d="M49.9,492.1c0,245.3,198.8,444.1,444.1,444.1
			s444.1-198.8,444.1-444.1C938.2,246.8,739.3,48,494.1,48S49.9,246.8,49.9,492.1"/>
	</defs>
	<clipPath id="SVGID_00000089541126356498003530000018124973888634789552_">
		<use xlink:href="#SVGID_00000020370725417039028330000004494903873571563917_"  style="overflow:visible;"/>
	</clipPath>
	<g style="clip-path:url(#SVGID_00000089541126356498003530000018124973888634789552_);">
		
			<radialGradient id="SVGID_00000150812931774303044310000016741052045410067889_" cx="494.0614" cy="501.8788" r="444.1224" gradientTransform="matrix(1 0 0 -1 0 994)" gradientUnits="userSpaceOnUse">
			<stop  offset="0.99" style="stop-color:#000000;stop-opacity:0.5"/>
			<stop  offset="1" style="stop-color:#000000;stop-opacity:0"/>
		</radialGradient>
		
			<rect x="49.9" y="48" style="fill:url(#SVGID_00000150812931774303044310000016741052045410067889_);" width="888.2" height="888.2"/>
	</g>
</g>
<g>
	<defs>
		<path id="SVGID_00000018236686936268748280000002431340190722277274_" d="M53.6,492.1c0,243.3,197.2,440.5,440.5,440.5
			s440.5-197.2,440.5-440.5c0-243.3-197.2-440.5-440.5-440.5S53.6,248.9,53.6,492.1"/>
	</defs>
	<clipPath id="SVGID_00000071558824708772608600000007232665395714776193_">
		<use xlink:href="#SVGID_00000018236686936268748280000002431340190722277274_"  style="overflow:visible;"/>
	</clipPath>
	<g style="clip-path:url(#SVGID_00000071558824708772608600000007232665395714776193_);">
		
			<radialGradient id="SVGID_00000075157454629254526220000014209612016984828065_" cx="433.7207" cy="-472.889" r="4.6533" gradientTransform="matrix(94.6543 0 0 94.6543 -40559.457 45253.0898)" gradientUnits="userSpaceOnUse">
			<stop  offset="0" style="stop-color:#000000"/>
			<stop  offset="1" style="stop-color:#322F32"/>
		</radialGradient>
		
			<rect x="53.6" y="51.7" style="fill:url(#SVGID_00000075157454629254526220000014209612016984828065_);" width="880.9" height="880.9"/>
	</g>
</g>
<radialGradient id="SVGID_00000092427181212153090570000016417065628950216588_" cx="578.8901" cy="482.3703" r="353.9427" gradientTransform="matrix(1 0 0 -1.0971 -18 982.5089)" gradientUnits="userSpaceOnUse">
	<stop  offset="0" style="stop-color:#C2C0C2"/>
	<stop  offset="1" style="stop-color:#EBEBEB"/>
</radialGradient>
<path style="fill:url(#SVGID_00000092427181212153090570000016417065628950216588_);" d="M666.9,350.5
	c-54.8,95.4-176.6,128.4-272,73.6c-1.8-1-3.5-2.1-5.2-3.1c-16.7-10.3-31.9-23.1-44.9-37.8c-34.4-38.8-52.3-89.4-49.9-141.1
	c0.3-5.8,0.8-11.6,1.5-17.3c0.7-5.7,1.7-11.3,3-16.9c1.3-5.7,2.8-11.4,4.5-17c1.7-5.4,3.7-10.8,5.9-16.1c2.3-5.5,4.8-10.9,7.5-16.1
	c2.9-5.5,6.1-10.9,9.5-16.2c3.1-4.8,6.5-9.5,10-14.1c3.9-5,8-9.7,12.3-14.3c4.4-4.6,8.9-9,13.7-13.2c4.8-4.3,9.9-8.2,15.1-12
	c2.7-1.9,5.4-3.8,8.2-5.6C268,143.7,219.6,287.3,277.1,406.9c0.5,1.1,1.1,2.3,1.7,3.4c0.3,0.5,0.5,1,0.8,1.5
	c0.1,0.3,0.3,0.6,0.5,0.9c0.3,0.4,0.4,0.3,0.9,0.3c2.6,0,5.2,0,7.7,0c4.8,0.1,9.5,0.4,14.3,0.8c90.3,8.5,163.5,76.9,178.2,166.4
	c3.2,19.9,3.4,40.2,0.6,60.2c-5.3,37.7-21.3,73-46.2,101.9c-14.2,16.5-31,30.6-49.8,41.8c-37.4,22.1-81,31.4-124.2,26.5
	c-7.8-0.9-15.6-2.2-23.2-4c-5-1.2-9.9-2.5-14.7-4.1c21.8,9.7,44.9,16.1,68.5,19c22.1,2.7,44.4,2.5,66.4-0.8
	c39.3-5.9,76.7-21.3,108.7-44.9c23.5-17.3,43.7-38.7,59.7-63.1c0.7-1.1,1.4-2.1,2.1-3.2c0.3-0.4,0.9-1.1,0.8-1.5
	c-0.3-0.7-0.6-1.3-1.1-1.9c-1.3-2.5-2.6-5-3.8-7.6c-2.5-5.1-4.7-10.4-6.7-15.7c-4.1-10.8-7.2-22-9.3-33.4c-4.6-24.5-4.6-49.5,0-74
	c3.9-20.8,11.1-40.8,21.4-59.3c34.8-63.2,101-102.6,173.1-103.1c4.9,0,9.8,0.1,14.7,0.4c4.7,0.3,9.4,0.8,14.1,1.4
	c4.6,0.6,9.2,1.4,13.8,2.4c4.5,0.9,8.9,2,13.4,3.3c4.3,1.2,8.6,2.6,12.8,4.1c4.3,1.5,8.5,3.2,12.7,5.1c4.3,1.9,8.4,3.9,12.6,6
	c4.1,2.2,8.1,4.5,12.1,6.9c3.7,2.3,7.4,4.7,10.9,7.3c3.7,2.6,7.2,5.4,10.7,8.2c3.6,2.9,7.1,6,10.5,9.2c3.6,3.4,7.1,6.9,10.4,10.6
	c3.3,3.6,6.5,7.4,9.6,11.3c3.4,4.3,6.6,8.8,9.7,13.4c3.1,4.7,6,9.6,8.7,14.5c3.8,6.9,7.1,14.1,10.1,21.4c3.2,8,5.8,16.1,8,24.4
	c-5.8-44.3-23.7-86.1-51.7-120.9c-20.6-25.6-46.1-46.9-75-62.5c-29.7-16-62.3-25.6-95.9-28.3C672.6,350.8,669.8,350.6,666.9,350.5z"
	/>
</svg>
